<svg xmlns="http://www.w3.org/2000/svg" viewBox="0 0 800 600" width="800" height="600"><defs><radialGradient id="shadow"><stop offset="0.7" stop-color="#000" stop-opacity="0.25"/><stop offset="1" stop-color="#000" stop-opacity="0"/></radialGradient></defs><rect width="800" height="600" fill="#3a2c26"/><rect x="0" y="0" width="800" height="2" fill="#2a1f1b" opacity="0.5"/><path d="M0,30 C200,22 400,38 800,28" stroke="#2a1f1b" stroke-width="1.2" fill="none" opacity="0.35"/><rect x="0" y="60" width="800" height="2" fill="#2a1f1b" opacity="0.5"/><path d="M0,90 C200,82 400,98 800,88" stroke="#2a1f1b" stroke-width="1.2" fill="none" opacity="0.35"/><rect x="0" y="120" width="800" height="2" fill="#2a1f1b" opacity="0.5"/><path d="M0,150 C200,142 400,158 800,148" stroke="#2a1f1b" stroke-width="1.2" fill="none" opacity="0.35"/><rect x="0" y="180" width="800" height="2" fill="#2a1f1b" opacity="0.5"/><path d="M0,210 C200,202 400,218 800,208" stroke="#2a1f1b" stroke-width="1.2" fill="none" opacity="0.35"/><rect x="0" y="240" width="800" height="2" fill="#2a1f1b" opacity="0.5"/><path d="M0,270 C200,262 400,278 800,268" stroke="#2a1f1b" stroke-width="1.2" fill="none" opacity="0.35"/><rect x="0" y="300" width="800" height="2" fill="#2a1f1b" opacity="0.5"/><path d="M0,330 C200,322 400,338 800,328" stroke="#2a1f1b" stroke-width="1.2" fill="none" opacity="0.35"/><rect x="0" y="360" width="800" height="2" fill="#2a1f1b" opacity="0.5"/><path d="M0,390 C200,382 400,398 800,388" stroke="#2a1f1b" stroke-width="1.2" fill="none" opacity="0.35"/><rect x="0" y="420" width="800" height="2" fill="#2a1f1b" opacity="0.5"/><path d="M0,450 C200,442 400,458 800,448" stroke="#2a1f1b" stroke-width="1.2" fill="none" opacity="0.35"/><rect x="0" y="480" width="800" height="2" fill="#2a1f1b" opacity="0.5"/><path d="M0,510 C200,502 400,518 800,508" stroke="#2a1f1b" stroke-width="1.2" fill="none" opacity="0.35"/><rect x="0" y="540" width="800" height="2" fill="#2a1f1b" opacity="0.5"/><path d="M0,570 C200,562 400,578 800,568" stroke="#2a1f1b" stroke-width="1.2" fill="none" opacity="0.35"/><defs><radialGradient id="glow"><stop offset="0" stop-color="#ffd27a" stop-opacity="0.35"/><stop offset="1" stop-color="#ffd27a" stop-opacity="0"/></radialGradient></defs><circle cx="400" cy="310" r="380" fill="url(#glow)"/><ellipse cx="414" cy="332" rx="300" ry="220" fill="url(#shadow)"/><ellipse cx="400" cy="310" rx="280" ry="200" fill="#ffffff" stroke="#e3e0da" stroke-width="3"/><ellipse cx="400" cy="316" rx="200" ry="112" fill="#e8b72c"/><ellipse cx="400" cy="310" rx="196" ry="106" fill="#f7d24a"/><path d="M439.7,293.5 Q441.8,297.0 440.0,301.0 Q438.3,304.9 433.2,307.0 Q428.2,309.0 424.6,305.3 Q421.0,301.5 419.9,296.6 Q418.9,291.7 424.0,290.2 Q429.2,288.7 433.4,289.3 Q437.6,289.9 439.7,293.5 Z" fill="#fbe17a"/><path d="M484.4,291.2 Q487.8,296.6 483.6,301.1 Q479.3,305.6 474.3,305.4 Q469.2,305.2 462.7,304.2 Q456.2,303.2 457.0,297.0 Q457.9,290.8 462.9,286.8 Q467.9,282.9 474.4,284.4 Q480.9,285.8 484.4,291.2 Z" fill="#fbe17a"/><path d="M573.1,280.2 Q574.7,286.7 572.6,292.6 Q570.6,298.6 563.3,300.5 Q556.1,302.4 551.8,297.3 Q547.4,292.1 548.6,287.2 Q549.8,282.2 553.2,277.5 Q556.5,272.8 564.1,273.2 Q571.6,273.6 573.1,280.2 Z" fill="#fbe17a"/><path d="M440.1,297.2 Q442.6,301.1 440.3,305.2 Q438.1,309.3 433.0,311.0 Q427.9,312.7 421.0,310.5 Q414.2,308.3 417.1,302.4 Q420.1,296.4 424.2,293.9 Q428.3,291.4 433.0,292.4 Q437.6,293.4 440.1,297.2 Z" fill="#fbe17a"/><path d="M256.9,266.5 Q261.1,271.8 256.2,276.4 Q251.3,280.9 245.8,282.2 Q240.3,283.5 236.2,280.1 Q232.0,276.7 232.0,271.8 Q231.9,266.9 235.6,261.7 Q239.4,256.6 246.0,258.9 Q252.6,261.2 256.9,266.5 Z" fill="#fbe17a"/><path d="M333.8,235.7 Q336.5,243.2 333.4,250.3 Q330.3,257.3 322.6,256.1 Q314.9,254.9 308.8,252.3 Q302.7,249.8 300.8,242.4 Q298.9,235.0 306.5,231.5 Q314.0,228.0 322.6,228.1 Q331.2,228.2 333.8,235.7 Z" fill="#fbe17a"/><path d="M259.5,290.9 Q261.4,295.8 258.8,299.8 Q256.2,303.9 251.1,305.8 Q246.0,307.7 241.9,304.1 Q237.9,300.6 237.4,295.6 Q237.0,290.5 241.8,288.6 Q246.7,286.6 252.1,286.4 Q257.5,286.1 259.5,290.9 Z" fill="#fbe17a"/><path d="M500.1,275.6 Q500.9,283.8 497.2,288.8 Q493.4,293.7 487.6,294.3 Q481.9,294.8 475.4,292.7 Q469.0,290.6 470.5,284.5 Q472.0,278.4 475.8,270.9 Q479.5,263.5 489.4,265.4 Q499.3,267.4 500.1,275.6 Z" fill="#fbe17a"/><path d="M313.2,237.8 Q314.4,242.6 313.5,247.8 Q312.6,252.9 306.1,255.4 Q299.6,257.8 296.2,252.5 Q292.8,247.2 292.1,242.3 Q291.3,237.3 295.3,232.0 Q299.4,226.6 305.7,229.8 Q312.0,233.0 313.2,237.8 Z" fill="#fbe17a"/><path d="M361.3,372.0 Q367.6,376.7 362.9,383.3 Q358.2,389.8 350.6,390.1 Q343.1,390.3 336.4,387.2 Q329.7,384.0 328.9,376.4 Q328.2,368.8 335.4,364.8 Q342.5,360.8 348.7,364.0 Q355.0,367.2 361.3,372.0 Z" fill="#fbe17a"/><path d="M344.0,288.7 Q347.2,294.6 344.0,300.5 Q340.8,306.4 333.4,309.2 Q326.0,312.1 322.9,305.6 Q319.8,299.2 317.1,293.5 Q314.5,287.7 320.8,284.9 Q327.2,282.1 334.0,282.4 Q340.9,282.8 344.0,288.7 Z" fill="#fbe17a"/><path d="M230,320 Q400,250 570,320 L560,350 Q400,285 240,350 Z" fill="#6b2f12" opacity="0.92"/><path d="M250,240 q20,70 40,140" stroke="#fffbe8" stroke-width="5" fill="none" stroke-linecap="round"/><path d="M290,240 q-20,70 -40,140" stroke="#fffbe8" stroke-width="5" fill="none" stroke-linecap="round"/><path d="M300,240 q20,70 40,140" stroke="#fffbe8" stroke-width="5" fill="none" stroke-linecap="round"/><path d="M340,240 q-20,70 -40,140" stroke="#fffbe8" stroke-width="5" fill="none" stroke-linecap="round"/><path d="M350,240 q20,70 40,140" stroke="#fffbe8" stroke-width="5" fill="none" stroke-linecap="round"/><path d="M390,240 q-20,70 -40,140" stroke="#fffbe8" stroke-width="5" fill="none" stroke-linecap="round"/><path d="M400,240 q20,70 40,140" stroke="#fffbe8" stroke-width="5" fill="none" stroke-linecap="round"/><path d="M440,240 q-20,70 -40,140" stroke="#fffbe8" stroke-width="5" fill="none" stroke-linecap="round"/><path d="M450,240 q20,70 40,140" stroke="#fffbe8" stroke-width="5" fill="none" stroke-linecap="round"/><path d="M490,240 q-20,70 -40,140" stroke="#fffbe8" stroke-width="5" fill="none" stroke-linecap="round"/><path d="M500,240 q20,70 40,140" stroke="#fffbe8" stroke-width="5" fill="none" stroke-linecap="round"/><path d="M540,240 q-20,70 -40,140" stroke="#fffbe8" stroke-width="5" fill="none" stroke-linecap="round"/><path d="M550,240 q20,70 40,140" stroke="#fffbe8" stroke-width="5" fill="none" stroke-linecap="round"/><path d="M590,240 q-20,70 -40,140" stroke="#fffbe8" stroke-width="5" fill="none" stroke-linecap="round"/><circle cx="507" cy="270" r="2.9" fill="#2f7d32"/><circle cx="348" cy="340" r="1.7" fill="#1f5f22"/><circle cx="546" cy="358" r="3.0" fill="#3f9a3a"/><circle cx="241" cy="290" r="2.7" fill="#2f7d32"/><circle cx="480" cy="294" r="2.7" fill="#2f7d32"/><circle cx="295" cy="302" r="2.1" fill="#2f7d32"/><circle cx="374" cy="274" r="2.4" fill="#1f5f22"/><circle cx="471" cy="258" r="2.3" fill="#3f9a3a"/><circle cx="521" cy="368" r="2.2" fill="#2f7d32"/><circle cx="455" cy="327" r="1.9" fill="#3f9a3a"/><circle cx="370" cy="359" r="1.9" fill="#3f9a3a"/><circle cx="524" cy="337" r="2.6" fill="#3f9a3a"/><circle cx="412" cy="341" r="2.1" fill="#3f9a3a"/><circle cx="359" cy="329" r="3.0" fill="#3f9a3a"/><circle cx="421" cy="301" r="2.8" fill="#3f9a3a"/><circle cx="490" cy="248" r="2.6" fill="#1f5f22"/><circle cx="443" cy="237" r="2.7" fill="#3f9a3a"/><circle cx="304" cy="320" r="2.4" fill="#2f7d32"/><circle cx="298" cy="311" r="2.4" fill="#3f9a3a"/><circle cx="334" cy="243" r="2.9" fill="#1f5f22"/><circle cx="434" cy="237" r="1.7" fill="#1f5f22"/><circle cx="436" cy="252" r="2.6" fill="#3f9a3a"/><circle cx="527" cy="277" r="2.7" fill="#2f7d32"/><circle cx="503" cy="326" r="2.4" fill="#3f9a3a"/><circle cx="249" cy="286" r="1.7" fill="#2f7d32"/><circle cx="306" cy="298" r="2.0" fill="#1f5f22"/><circle cx="311" cy="324" r="2.9" fill="#1f5f22"/><circle cx="356" cy="334" r="2.6" fill="#1f5f22"/><circle cx="340" cy="372" r="3.0" fill="#1f5f22"/><circle cx="281" cy="291" r="2.7" fill="#2f7d32"/><circle cx="397" cy="286" r="1.8" fill="#1f5f22"/><circle cx="411" cy="264" r="2.1" fill="#2f7d32"/><circle cx="253" cy="348" r="2.2" fill="#2f7d32"/><circle cx="429" cy="296" r="1.9" fill="#3f9a3a"/><circle cx="251" cy="277" r="2.7" fill="#3f9a3a"/><circle cx="503" cy="322" r="3.0" fill="#1f5f22"/><circle cx="528" cy="331" r="2.7" fill="#2f7d32"/><circle cx="452" cy="299" r="1.6" fill="#2f7d32"/><circle cx="365" cy="291" r="1.6" fill="#2f7d32"/><circle cx="375" cy="286" r="2.9" fill="#1f5f22"/><circle cx="467" cy="337" r="1.9" fill="#2f7d32"/><circle cx="480" cy="360" r="2.2" fill="#2f7d32"/><circle cx="537" cy="298" r="2.5" fill="#1f5f22"/><circle cx="496" cy="249" r="1.5" fill="#1f5f22"/><circle cx="434" cy="315" r="1.8" fill="#3f9a3a"/><circle cx="491" cy="280" r="2.6" fill="#3f9a3a"/><circle cx="398" cy="317" r="2.7" fill="#3f9a3a"/><circle cx="348" cy="348" r="1.8" fill="#1f5f22"/><circle cx="422" cy="374" r="1.7" fill="#1f5f22"/><circle cx="490" cy="252" r="2.9" fill="#1f5f22"/><circle cx="275" cy="362" r="1.6" fill="#2f7d32"/><circle cx="393" cy="380" r="1.6" fill="#3f9a3a"/><circle cx="327" cy="322" r="3.0" fill="#1f5f22"/><circle cx="535" cy="336" r="2.5" fill="#1f5f22"/><circle cx="502" cy="258" r="1.8" fill="#2f7d32"/><circle cx="476" cy="374" r="1.9" fill="#2f7d32"/><circle cx="432" cy="292" r="1.6" fill="#1f5f22"/><circle cx="375" cy="237" r="1.5" fill="#2f7d32"/><circle cx="495" cy="287" r="2.4" fill="#1f5f22"/><circle cx="418" cy="386" r="1.5" fill="#3f9a3a"/><circle cx="266" cy="282" r="2.5" fill="#1f5f22"/><circle cx="338" cy="365" r="1.7" fill="#2f7d32"/><circle cx="285" cy="323" r="3.0" fill="#1f5f22"/><circle cx="508" cy="350" r="1.8" fill="#2f7d32"/><circle cx="407" cy="316" r="2.4" fill="#2f7d32"/><circle cx="509" cy="273" r="2.4" fill="#1f5f22"/><circle cx="470" cy="382" r="2.9" fill="#2f7d32"/><circle cx="277" cy="299" r="1.6" fill="#1f5f22"/><circle cx="400" cy="387" r="2.7" fill="#2f7d32"/><circle cx="468" cy="254" r="2.4" fill="#3f9a3a"/><circle cx="387" cy="256" r="2.3" fill="#2f7d32"/><circle cx="347" cy="320" r="3.0" fill="#2f7d32"/><circle cx="488" cy="348" r="1.7" fill="#1f5f22"/><circle cx="359" cy="235" r="1.6" fill="#2f7d32"/><circle cx="292" cy="372" r="2.0" fill="#2f7d32"/><circle cx="389" cy="355" r="2.0" fill="#2f7d32"/><circle cx="497" cy="376" r="2.7" fill="#2f7d32"/><circle cx="369" cy="337" r="2.1" fill="#1f5f22"/><circle cx="245" cy="320" r="2.5" fill="#2f7d32"/><rect x="522" y="263" width="16" height="4" rx="2" fill="#e8305a" transform="rotate(19 530 265)"/><rect x="520" y="266" width="16" height="4" rx="2" fill="#e8305a" transform="rotate(113 528 268)"/><rect x="529" y="271" width="16" height="4" rx="2" fill="#e8305a" transform="rotate(114 537 273)"/><rect x="527" y="248" width="16" height="4" rx="2" fill="#e8305a" transform="rotate(54 535 250)"/><rect x="513" y="259" width="16" height="4" rx="2" fill="#e8305a" transform="rotate(172 521 261)"/><rect x="517" y="261" width="16" height="4" rx="2" fill="#e8305a" transform="rotate(112 525 263)"/><rect x="528" y="255" width="16" height="4" rx="2" fill="#e8305a" transform="rotate(133 536 257)"/><rect x="516" y="255" width="16" height="4" rx="2" fill="#e8305a" transform="rotate(61 524 257)"/><rect x="500" y="244" width="16" height="4" rx="2" fill="#e8305a" transform="rotate(60 508 246)"/><rect x="505" y="246" width="16" height="4" rx="2" fill="#e8305a" transform="rotate(87 513 248)"/><rect x="507" y="270" width="16" height="4" rx="2" fill="#e8305a" transform="rotate(140 515 272)"/><rect x="518" y="268" width="16" height="4" rx="2" fill="#e8305a" transform="rotate(49 526 270)"/><path d="M210,280 q-14,6 -22,-2" stroke="#9c5a2c" stroke-width="5" fill="none" stroke-linecap="round"/><path d="M204,295 q-14,6 -22,-2" stroke="#9c5a2c" stroke-width="5" fill="none" stroke-linecap="round"/><path d="M208,310 q-14,6 -22,-2" stroke="#9c5a2c" stroke-width="5" fill="none" stroke-linecap="round"/><path d="M199,325 q-14,6 -22,-2" stroke="#9c5a2c" stroke-width="5" fill="none" stroke-linecap="round"/><path d="M206,340 q-14,6 -22,-2" stroke="#9c5a2c" stroke-width="5" fill="none" stroke-linecap="round"/><path d="M600,280 q14,6 22,-2" stroke="#9c5a2c" stroke-width="5" fill="none" stroke-linecap="round"/><path d="M592,295 q14,6 22,-2" stroke="#9c5a2c" stroke-width="5" fill="none" stroke-linecap="round"/><path d="M590,310 q14,6 22,-2" stroke="#9c5a2c" stroke-width="5" fill="none" stroke-linecap="round"/><path d="M597,325 q14,6 22,-2" stroke="#9c5a2c" stroke-width="5" fill="none" stroke-linecap="round"/><path d="M597,340 q14,6 22,-2" stroke="#9c5a2c" stroke-width="5" fill="none" stroke-linecap="round"/><rect x="120" y="520" width="560" height="11" rx="5" fill="#b07a4a" transform="rotate(-3 400 525)"/><rect x="120" y="538" width="560" height="11" rx="5" fill="#c08a58" transform="rotate(-3 400 543)"/></svg>