<svg xmlns="http://www.w3.org/2000/svg" viewBox="0 0 800 600" width="800" height="600"><defs><radialGradient id="shadow"><stop offset="0.7" stop-color="#000" stop-opacity="0.25"/><stop offset="1" stop-color="#000" stop-opacity="0"/></radialGradient></defs><rect width="800" height="600" fill="#eef1f0"/><rect x="0" y="0" width="2" height="330" fill="#d6dcda"/><rect x="40" y="0" width="2" height="330" fill="#d6dcda"/><rect x="80" y="0" width="2" height="330" fill="#d6dcda"/><rect x="120" y="0" width="2" height="330" fill="#d6dcda"/><rect x="160" y="0" width="2" height="330" fill="#d6dcda"/><rect x="200" y="0" width="2" height="330" fill="#d6dcda"/><rect x="240" y="0" width="2" height="330" fill="#d6dcda"/><rect x="280" y="0" width="2" height="330" fill="#d6dcda"/><rect x="320" y="0" width="2" height="330" fill="#d6dcda"/><rect x="360" y="0" width="2" height="330" fill="#d6dcda"/><rect x="400" y="0" width="2" height="330" fill="#d6dcda"/><rect x="440" y="0" width="2" height="330" fill="#d6dcda"/><rect x="480" y="0" width="2" height="330" fill="#d6dcda"/><rect x="520" y="0" width="2" height="330" fill="#d6dcda"/><rect x="560" y="0" width="2" height="330" fill="#d6dcda"/><rect x="600" y="0" width="2" height="330" fill="#d6dcda"/><rect x="640" y="0" width="2" height="330" fill="#d6dcda"/><rect x="680" y="0" width="2" height="330" fill="#d6dcda"/><rect x="720" y="0" width="2" height="330" fill="#d6dcda"/><rect x="760" y="0" width="2" height="330" fill="#d6dcda"/><rect x="0" y="0" width="800" height="2" fill="#d6dcda"/><rect x="0" y="40" width="800" height="2" fill="#d6dcda"/><rect x="0" y="80" width="800" height="2" fill="#d6dcda"/><rect x="0" y="120" width="800" height="2" fill="#d6dcda"/><rect x="0" y="160" width="800" height="2" fill="#d6dcda"/><rect x="0" y="200" width="800" height="2" fill="#d6dcda"/><rect x="0" y="240" width="800" height="2" fill="#d6dcda"/><rect x="0" y="280" width="800" height="2" fill="#d6dcda"/><rect x="0" y="320" width="800" height="2" fill="#d6dcda"/><rect x="520" y="30" width="230" height="170" rx="6" fill="#cfe7f5" stroke="#9fb6c2" stroke-width="6"/><rect x="633" y="30" width="6" height="170" fill="#9fb6c2"/><polygon points="520,200 750,200 800,330 470,330" fill="#ffffff" opacity="0.25"/><rect x="40" y="30" width="200" height="80" rx="8" fill="#c9cfd3"/><circle cx="140" cy="70" r="26" fill="#b2b9be"/><path d="M140,70 L162,70" stroke="#8f979c" stroke-width="6" stroke-linecap="round"/><path d="M140,70 L140,92" stroke="#8f979c" stroke-width="6" stroke-linecap="round"/><path d="M140,70 L118,70" stroke="#8f979c" stroke-width="6" stroke-linecap="round"/><path d="M140,70 L140,48" stroke="#8f979c" stroke-width="6" stroke-linecap="round"/><rect x="0" y="330" width="800" height="270" fill="#b9bfc4"/><rect x="0" y="340" width="800" height="2" fill="#a7adb2" opacity="0.6"/><rect x="0" y="358" width="800" height="2" fill="#a7adb2" opacity="0.6"/><rect x="0" y="376" width="800" height="2" fill="#a7adb2" opacity="0.6"/><rect x="0" y="394" width="800" height="2" fill="#a7adb2" opacity="0.6"/><rect x="0" y="412" width="800" height="2" fill="#a7adb2" opacity="0.6"/><rect x="0" y="430" width="800" height="2" fill="#a7adb2" opacity="0.6"/><rect x="0" y="448" width="800" height="2" fill="#a7adb2" opacity="0.6"/><rect x="0" y="466" width="800" height="2" fill="#a7adb2" opacity="0.6"/><rect x="0" y="484" width="800" height="2" fill="#a7adb2" opacity="0.6"/><rect x="0" y="502" width="800" height="2" fill="#a7adb2" opacity="0.6"/><rect x="0" y="520" width="800" height="2" fill="#a7adb2" opacity="0.6"/><rect x="0" y="538" width="800" height="2" fill="#a7adb2" opacity="0.6"/><rect x="0" y="556" width="800" height="2" fill="#a7adb2" opacity="0.6"/><rect x="0" y="574" width="800" height="2" fill="#a7adb2" opacity="0.6"/><rect x="0" y="592" width="800" height="2" fill="#a7adb2" opacity="0.6"/><rect x="230" y="420" width="340" height="120" rx="12" fill="#9aa1a7" stroke="#7d848a" stroke-width="3"/><rect x="300" y="400" width="200" height="14" rx="4" fill="#3b3b3b"/><rect x="310" y="400" width="10" height="110" fill="#3b3b3b"/><rect x="482" y="400" width="10" height="110" fill="#3b3b3b"/><rect x="370" y="470" width="60" height="30" rx="4" fill="#d7dade" stroke="#9aa0a6" stroke-width="2"/><path d="M380,470 Q392,430 400,452 Q408,422 420,470 Z" fill="#4aa3ff" opacity="0.85"/><path d="M390,470 Q398,448 400,458 Q404,440 410,470 Z" fill="#bfe3ff"/><rect x="290" y="300" width="220" height="100" rx="12" fill="#cfd4d8" stroke="#9aa0a6" stroke-width="3"/><rect x="296" y="304" width="208" height="30" rx="8" fill="#fdfcf7"/><ellipse cx="304" cy="310" rx="5" ry="3" fill="#ffffff" stroke="#e6e2d4" stroke-width="0.8" transform="rotate(71 304 310)"/><ellipse cx="436" cy="311" rx="5" ry="3" fill="#ffffff" stroke="#e6e2d4" stroke-width="0.8" transform="rotate(20 436 311)"/><ellipse cx="347" cy="325" rx="5" ry="3" fill="#ffffff" stroke="#e6e2d4" stroke-width="0.8" transform="rotate(27 347 325)"/><ellipse cx="447" cy="323" rx="5" ry="3" fill="#ffffff" stroke="#e6e2d4" stroke-width="0.8" transform="rotate(25 447 323)"/><ellipse cx="407" cy="318" rx="5" ry="3" fill="#ffffff" stroke="#e6e2d4" stroke-width="0.8" transform="rotate(74 407 318)"/><ellipse cx="497" cy="310" rx="5" ry="3" fill="#ffffff" stroke="#e6e2d4" stroke-width="0.8" transform="rotate(4 497 310)"/><ellipse cx="486" cy="317" rx="5" ry="3" fill="#ffffff" stroke="#e6e2d4" stroke-width="0.8" transform="rotate(36 486 317)"/><ellipse cx="367" cy="316" rx="5" ry="3" fill="#ffffff" stroke="#e6e2d4" stroke-width="0.8" transform="rotate(172 367 316)"/><ellipse cx="343" cy="313" rx="5" ry="3" fill="#ffffff" stroke="#e6e2d4" stroke-width="0.8" transform="rotate(105 343 313)"/><ellipse cx="409" cy="329" rx="5" ry="3" fill="#ffffff" stroke="#e6e2d4" stroke-width="0.8" transform="rotate(151 409 329)"/><ellipse cx="372" cy="312" rx="5" ry="3" fill="#ffffff" stroke="#e6e2d4" stroke-width="0.8" transform="rotate(151 372 312)"/><ellipse cx="496" cy="309" rx="5" ry="3" fill="#ffffff" stroke="#e6e2d4" stroke-width="0.8" transform="rotate(132 496 309)"/><ellipse cx="472" cy="322" rx="5" ry="3" fill="#ffffff" stroke="#e6e2d4" stroke-width="0.8" transform="rotate(39 472 322)"/><ellipse cx="458" cy="324" rx="5" ry="3" fill="#ffffff" stroke="#e6e2d4" stroke-width="0.8" transform="rotate(35 458 324)"/><ellipse cx="428" cy="313" rx="5" ry="3" fill="#ffffff" stroke="#e6e2d4" stroke-width="0.8" transform="rotate(7 428 313)"/><ellipse cx="368" cy="315" rx="5" ry="3" fill="#ffffff" stroke="#e6e2d4" stroke-width="0.8" transform="rotate(71 368 315)"/><ellipse cx="429" cy="326" rx="5" ry="3" fill="#ffffff" stroke="#e6e2d4" stroke-width="0.8" transform="rotate(173 429 326)"/><ellipse cx="493" cy="330" rx="5" ry="3" fill="#ffffff" stroke="#e6e2d4" stroke-width="0.8" transform="rotate(142 493 330)"/><ellipse cx="362" cy="312" rx="5" ry="3" fill="#ffffff" stroke="#e6e2d4" stroke-width="0.8" transform="rotate(112 362 312)"/><ellipse cx="409" cy="323" rx="5" ry="3" fill="#ffffff" stroke="#e6e2d4" stroke-width="0.8" transform="rotate(17 409 323)"/><ellipse cx="340" cy="328" rx="5" ry="3" fill="#ffffff" stroke="#e6e2d4" stroke-width="0.8" transform="rotate(108 340 328)"/><ellipse cx="438" cy="310" rx="5" ry="3" fill="#ffffff" stroke="#e6e2d4" stroke-width="0.8" transform="rotate(72 438 310)"/><ellipse cx="480" cy="322" rx="5" ry="3" fill="#ffffff" stroke="#e6e2d4" stroke-width="0.8" transform="rotate(178 480 322)"/><ellipse cx="341" cy="318" rx="5" ry="3" fill="#ffffff" stroke="#e6e2d4" stroke-width="0.8" transform="rotate(144 341 318)"/><ellipse cx="389" cy="325" rx="5" ry="3" fill="#ffffff" stroke="#e6e2d4" stroke-width="0.8" transform="rotate(101 389 325)"/><ellipse cx="325" cy="310" rx="5" ry="3" fill="#ffffff" stroke="#e6e2d4" stroke-width="0.8" transform="rotate(177 325 310)"/><ellipse cx="325" cy="312" rx="5" ry="3" fill="#ffffff" stroke="#e6e2d4" stroke-width="0.8" transform="rotate(60 325 312)"/><ellipse cx="442" cy="327" rx="5" ry="3" fill="#ffffff" stroke="#e6e2d4" stroke-width="0.8" transform="rotate(86 442 327)"/><ellipse cx="400" cy="325" rx="5" ry="3" fill="#ffffff" stroke="#e6e2d4" stroke-width="0.8" transform="rotate(50 400 325)"/><ellipse cx="375" cy="321" rx="5" ry="3" fill="#ffffff" stroke="#e6e2d4" stroke-width="0.8" transform="rotate(115 375 321)"/><ellipse cx="309" cy="310" rx="5" ry="3" fill="#ffffff" stroke="#e6e2d4" stroke-width="0.8" transform="rotate(25 309 310)"/><ellipse cx="444" cy="323" rx="5" ry="3" fill="#ffffff" stroke="#e6e2d4" stroke-width="0.8" transform="rotate(175 444 323)"/><ellipse cx="452" cy="314" rx="5" ry="3" fill="#ffffff" stroke="#e6e2d4" stroke-width="0.8" transform="rotate(138 452 314)"/><ellipse cx="495" cy="316" rx="5" ry="3" fill="#ffffff" stroke="#e6e2d4" stroke-width="0.8" transform="rotate(2 495 316)"/><ellipse cx="376" cy="314" rx="5" ry="3" fill="#ffffff" stroke="#e6e2d4" stroke-width="0.8" transform="rotate(32 376 314)"/><ellipse cx="311" cy="311" rx="5" ry="3" fill="#ffffff" stroke="#e6e2d4" stroke-width="0.8" transform="rotate(156 311 311)"/><ellipse cx="312" cy="322" rx="5" ry="3" fill="#ffffff" stroke="#e6e2d4" stroke-width="0.8" transform="rotate(37 312 322)"/><ellipse cx="340" cy="326" rx="5" ry="3" fill="#ffffff" stroke="#e6e2d4" stroke-width="0.8" transform="rotate(54 340 326)"/><ellipse cx="338" cy="318" rx="5" ry="3" fill="#ffffff" stroke="#e6e2d4" stroke-width="0.8" transform="rotate(125 338 318)"/><ellipse cx="405" cy="327" rx="5" ry="3" fill="#ffffff" stroke="#e6e2d4" stroke-width="0.8" transform="rotate(72 405 327)"/><rect x="300" y="262" width="220" height="40" rx="10" fill="#d9dde1" stroke="#9aa0a6" stroke-width="3" transform="rotate(-8 300 300)"/><rect x="510" y="335" width="120" height="16" rx="8" fill="#c2392f"/><path d="M350,250 q18,-26 0,-52 q-18,-26 0,-52" stroke="#ffffff" stroke-width="6" fill="none" opacity="0.7" stroke-linecap="round"/><path d="M400,250 q18,-26 0,-52 q-18,-26 0,-52" stroke="#ffffff" stroke-width="6" fill="none" opacity="0.7" stroke-linecap="round"/><path d="M450,250 q18,-26 0,-52 q-18,-26 0,-52" stroke="#ffffff" stroke-width="6" fill="none" opacity="0.7" stroke-linecap="round"/><rect x="610" y="440" width="120" height="70" rx="10" fill="#7fb3d5"/><rect x="610" y="455" width="120" height="6" fill="#ffffff" opacity="0.6"/><rect x="90" y="430" width="60" height="80" rx="8" fill="#dff2fb" stroke="#9fc6d8" stroke-width="3"/><rect x="94" y="455" width="52" height="51" rx="6" fill="#9fd3ef"/></svg>