<svg xmlns="http://www.w3.org/2000/svg" viewBox="0 0 800 600" width="800" height="600"><defs><radialGradient id="shadow"><stop offset="0.7" stop-color="#000" stop-opacity="0.25"/><stop offset="1" stop-color="#000" stop-opacity="0"/></radialGradient></defs><rect width="800" height="600" fill="#c9302c"/><circle cx="0" cy="0" r="3" fill="#e2574c"/><circle cx="40" cy="0" r="3" fill="#e2574c"/><circle cx="80" cy="0" r="3" fill="#e2574c"/><circle cx="120" cy="0" r="3" fill="#e2574c"/><circle cx="160" cy="0" r="3" fill="#e2574c"/><circle cx="200" cy="0" r="3" fill="#e2574c"/><circle cx="240" cy="0" r="3" fill="#e2574c"/><circle cx="280" cy="0" r="3" fill="#e2574c"/><circle cx="320" cy="0" r="3" fill="#e2574c"/><circle cx="360" cy="0" r="3" fill="#e2574c"/><circle cx="400" cy="0" r="3" fill="#e2574c"/><circle cx="440" cy="0" r="3" fill="#e2574c"/><circle cx="480" cy="0" r="3" fill="#e2574c"/><circle cx="520" cy="0" r="3" fill="#e2574c"/><circle cx="560" cy="0" r="3" fill="#e2574c"/><circle cx="600" cy="0" r="3" fill="#e2574c"/><circle cx="640" cy="0" r="3" fill="#e2574c"/><circle cx="680" cy="0" r="3" fill="#e2574c"/><circle cx="720" cy="0" r="3" fill="#e2574c"/><circle cx="760" cy="0" r="3" fill="#e2574c"/><circle cx="20" cy="40" r="3" fill="#e2574c"/><circle cx="60" cy="40" r="3" fill="#e2574c"/><circle cx="100" cy="40" r="3" fill="#e2574c"/><circle cx="140" cy="40" r="3" fill="#e2574c"/><circle cx="180" cy="40" r="3" fill="#e2574c"/><circle cx="220" cy="40" r="3" fill="#e2574c"/><circle cx="260" cy="40" r="3" fill="#e2574c"/><circle cx="300" cy="40" r="3" fill="#e2574c"/><circle cx="340" cy="40" r="3" fill="#e2574c"/><circle cx="380" cy="40" r="3" fill="#e2574c"/><circle cx="420" cy="40" r="3" fill="#e2574c"/><circle cx="460" cy="40" r="3" fill="#e2574c"/><circle cx="500" cy="40" r="3" fill="#e2574c"/><circle cx="540" cy="40" r="3" fill="#e2574c"/><circle cx="580" cy="40" r="3" fill="#e2574c"/><circle cx="620" cy="40" r="3" fill="#e2574c"/><circle cx="660" cy="40" r="3" fill="#e2574c"/><circle cx="700" cy="40" r="3" fill="#e2574c"/><circle cx="740" cy="40" r="3" fill="#e2574c"/><circle cx="780" cy="40" r="3" fill="#e2574c"/><circle cx="0" cy="80" r="3" fill="#e2574c"/><circle cx="40" cy="80" r="3" fill="#e2574c"/><circle cx="80" cy="80" r="3" fill="#e2574c"/><circle cx="120" cy="80" r="3" fill="#e2574c"/><circle cx="160" cy="80" r="3" fill="#e2574c"/><circle cx="200" cy="80" r="3" fill="#e2574c"/><circle cx="240" cy="80" r="3" fill="#e2574c"/><circle cx="280" cy="80" r="3" fill="#e2574c"/><circle cx="320" cy="80" r="3" fill="#e2574c"/><circle cx="360" cy="80" r="3" fill="#e2574c"/><circle cx="400" cy="80" r="3" fill="#e2574c"/><circle cx="440" cy="80" r="3" fill="#e2574c"/><circle cx="480" cy="80" r="3" fill="#e2574c"/><circle cx="520" cy="80" r="3" fill="#e2574c"/><circle cx="560" cy="80" r="3" fill="#e2574c"/><circle cx="600" cy="80" r="3" fill="#e2574c"/><circle cx="640" cy="80" r="3" fill="#e2574c"/><circle cx="680" cy="80" r="3" fill="#e2574c"/><circle cx="720" cy="80" r="3" fill="#e2574c"/><circle cx="760" cy="80" r="3" fill="#e2574c"/><circle cx="20" cy="120" r="3" fill="#e2574c"/><circle cx="60" cy="120" r="3" fill="#e2574c"/><circle cx="100" cy="120" r="3" fill="#e2574c"/><circle cx="140" cy="120" r="3" fill="#e2574c"/><circle cx="180" cy="120" r="3" fill="#e2574c"/><circle cx="220" cy="120" r="3" fill="#e2574c"/><circle cx="260" cy="120" r="3" fill="#e2574c"/><circle cx="300" cy="120" r="3" fill="#e2574c"/><circle cx="340" cy="120" r="3" fill="#e2574c"/><circle cx="380" cy="120" r="3" fill="#e2574c"/><circle cx="420" cy="120" r="3" fill="#e2574c"/><circle cx="460" cy="120" r="3" fill="#e2574c"/><circle cx="500" cy="120" r="3" fill="#e2574c"/><circle cx="540" cy="120" r="3" fill="#e2574c"/><circle cx="580" cy="120" r="3" fill="#e2574c"/><circle cx="620" cy="120" r="3" fill="#e2574c"/><circle cx="660" cy="120" r="3" fill="#e2574c"/><circle cx="700" cy="120" r="3" fill="#e2574c"/><circle cx="740" cy="120" r="3" fill="#e2574c"/><circle cx="780" cy="120" r="3" fill="#e2574c"/><circle cx="0" cy="160" r="3" fill="#e2574c"/><circle cx="40" cy="160" r="3" fill="#e2574c"/><circle cx="80" cy="160" r="3" fill="#e2574c"/><circle cx="120" cy="160" r="3" fill="#e2574c"/><circle cx="160" cy="160" r="3" fill="#e2574c"/><circle cx="200" cy="160" r="3" fill="#e2574c"/><circle cx="240" cy="160" r="3" fill="#e2574c"/><circle cx="280" cy="160" r="3" fill="#e2574c"/><circle cx="320" cy="160" r="3" fill="#e2574c"/><circle cx="360" cy="160" r="3" fill="#e2574c"/><circle cx="400" cy="160" r="3" fill="#e2574c"/><circle cx="440" cy="160" r="3" fill="#e2574c"/><circle cx="480" cy="160" r="3" fill="#e2574c"/><circle cx="520" cy="160" r="3" fill="#e2574c"/><circle cx="560" cy="160" r="3" fill="#e2574c"/><circle cx="600" cy="160" r="3" fill="#e2574c"/><circle cx="640" cy="160" r="3" fill="#e2574c"/><circle cx="680" cy="160" r="3" fill="#e2574c"/><circle cx="720" cy="160" r="3" fill="#e2574c"/><circle cx="760" cy="160" r="3" fill="#e2574c"/><circle cx="20" cy="200" r="3" fill="#e2574c"/><circle cx="60" cy="200" r="3" fill="#e2574c"/><circle cx="100" cy="200" r="3" fill="#e2574c"/><circle cx="140" cy="200" r="3" fill="#e2574c"/><circle cx="180" cy="200" r="3" fill="#e2574c"/><circle cx="220" cy="200" r="3" fill="#e2574c"/><circle cx="260" cy="200" r="3" fill="#e2574c"/><circle cx="300" cy="200" r="3" fill="#e2574c"/><circle cx="340" cy="200" r="3" fill="#e2574c"/><circle cx="380" cy="200" r="3" fill="#e2574c"/><circle cx="420" cy="200" r="3" fill="#e2574c"/><circle cx="460" cy="200" r="3" fill="#e2574c"/><circle cx="500" cy="200" r="3" fill="#e2574c"/><circle cx="540" cy="200" r="3" fill="#e2574c"/><circle cx="580" cy="200" r="3" fill="#e2574c"/><circle cx="620" cy="200" r="3" fill="#e2574c"/><circle cx="660" cy="200" r="3" fill="#e2574c"/><circle cx="700" cy="200" r="3" fill="#e2574c"/><circle cx="740" cy="200" r="3" fill="#e2574c"/><circle cx="780" cy="200" r="3" fill="#e2574c"/><circle cx="0" cy="240" r="3" fill="#e2574c"/><circle cx="40" cy="240" r="3" fill="#e2574c"/><circle cx="80" cy="240" r="3" fill="#e2574c"/><circle cx="120" cy="240" r="3" fill="#e2574c"/><circle cx="160" cy="240" r="3" fill="#e2574c"/><circle cx="200" cy="240" r="3" fill="#e2574c"/><circle cx="240" cy="240" r="3" fill="#e2574c"/><circle cx="280" cy="240" r="3" fill="#e2574c"/><circle cx="320" cy="240" r="3" fill="#e2574c"/><circle cx="360" cy="240" r="3" fill="#e2574c"/><circle cx="400" cy="240" r="3" fill="#e2574c"/><circle cx="440" cy="240" r="3" fill="#e2574c"/><circle cx="480" cy="240" r="3" fill="#e2574c"/><circle cx="520" cy="240" r="3" fill="#e2574c"/><circle cx="560" cy="240" r="3" fill="#e2574c"/><circle cx="600" cy="240" r="3" fill="#e2574c"/><circle cx="640" cy="240" r="3" fill="#e2574c"/><circle cx="680" cy="240" r="3" fill="#e2574c"/><circle cx="720" cy="240" r="3" fill="#e2574c"/><circle cx="760" cy="240" r="3" fill="#e2574c"/><circle cx="20" cy="280" r="3" fill="#e2574c"/><circle cx="60" cy="280" r="3" fill="#e2574c"/><circle cx="100" cy="280" r="3" fill="#e2574c"/><circle cx="140" cy="280" r="3" fill="#e2574c"/><circle cx="180" cy="280" r="3" fill="#e2574c"/><circle cx="220" cy="280" r="3" fill="#e2574c"/><circle cx="260" cy="280" r="3" fill="#e2574c"/><circle cx="300" cy="280" r="3" fill="#e2574c"/><circle cx="340" cy="280" r="3" fill="#e2574c"/><circle cx="380" cy="280" r="3" fill="#e2574c"/><circle cx="420" cy="280" r="3" fill="#e2574c"/><circle cx="460" cy="280" r="3" fill="#e2574c"/><circle cx="500" cy="280" r="3" fill="#e2574c"/><circle cx="540" cy="280" r="3" fill="#e2574c"/><circle cx="580" cy="280" r="3" fill="#e2574c"/><circle cx="620" cy="280" r="3" fill="#e2574c"/><circle cx="660" cy="280" r="3" fill="#e2574c"/><circle cx="700" cy="280" r="3" fill="#e2574c"/><circle cx="740" cy="280" r="3" fill="#e2574c"/><circle cx="780" cy="280" r="3" fill="#e2574c"/><circle cx="0" cy="320" r="3" fill="#e2574c"/><circle cx="40" cy="320" r="3" fill="#e2574c"/><circle cx="80" cy="320" r="3" fill="#e2574c"/><circle cx="120" cy="320" r="3" fill="#e2574c"/><circle cx="160" cy="320" r="3" fill="#e2574c"/><circle cx="200" cy="320" r="3" fill="#e2574c"/><circle cx="240" cy="320" r="3" fill="#e2574c"/><circle cx="280" cy="320" r="3" fill="#e2574c"/><circle cx="320" cy="320" r="3" fill="#e2574c"/><circle cx="360" cy="320" r="3" fill="#e2574c"/><circle cx="400" cy="320" r="3" fill="#e2574c"/><circle cx="440" cy="320" r="3" fill="#e2574c"/><circle cx="480" cy="320" r="3" fill="#e2574c"/><circle cx="520" cy="320" r="3" fill="#e2574c"/><circle cx="560" cy="320" r="3" fill="#e2574c"/><circle cx="600" cy="320" r="3" fill="#e2574c"/><circle cx="640" cy="320" r="3" fill="#e2574c"/><circle cx="680" cy="320" r="3" fill="#e2574c"/><circle cx="720" cy="320" r="3" fill="#e2574c"/><circle cx="760" cy="320" r="3" fill="#e2574c"/><circle cx="20" cy="360" r="3" fill="#e2574c"/><circle cx="60" cy="360" r="3" fill="#e2574c"/><circle cx="100" cy="360" r="3" fill="#e2574c"/><circle cx="140" cy="360" r="3" fill="#e2574c"/><circle cx="180" cy="360" r="3" fill="#e2574c"/><circle cx="220" cy="360" r="3" fill="#e2574c"/><circle cx="260" cy="360" r="3" fill="#e2574c"/><circle cx="300" cy="360" r="3" fill="#e2574c"/><circle cx="340" cy="360" r="3" fill="#e2574c"/><circle cx="380" cy="360" r="3" fill="#e2574c"/><circle cx="420" cy="360" r="3" fill="#e2574c"/><circle cx="460" cy="360" r="3" fill="#e2574c"/><circle cx="500" cy="360" r="3" fill="#e2574c"/><circle cx="540" cy="360" r="3" fill="#e2574c"/><circle cx="580" cy="360" r="3" fill="#e2574c"/><circle cx="620" cy="360" r="3" fill="#e2574c"/><circle cx="660" cy="360" r="3" fill="#e2574c"/><circle cx="700" cy="360" r="3" fill="#e2574c"/><circle cx="740" cy="360" r="3" fill="#e2574c"/><circle cx="780" cy="360" r="3" fill="#e2574c"/><circle cx="0" cy="400" r="3" fill="#e2574c"/><circle cx="40" cy="400" r="3" fill="#e2574c"/><circle cx="80" cy="400" r="3" fill="#e2574c"/><circle cx="120" cy="400" r="3" fill="#e2574c"/><circle cx="160" cy="400" r="3" fill="#e2574c"/><circle cx="200" cy="400" r="3" fill="#e2574c"/><circle cx="240" cy="400" r="3" fill="#e2574c"/><circle cx="280" cy="400" r="3" fill="#e2574c"/><circle cx="320" cy="400" r="3" fill="#e2574c"/><circle cx="360" cy="400" r="3" fill="#e2574c"/><circle cx="400" cy="400" r="3" fill="#e2574c"/><circle cx="440" cy="400" r="3" fill="#e2574c"/><circle cx="480" cy="400" r="3" fill="#e2574c"/><circle cx="520" cy="400" r="3" fill="#e2574c"/><circle cx="560" cy="400" r="3" fill="#e2574c"/><circle cx="600" cy="400" r="3" fill="#e2574c"/><circle cx="640" cy="400" r="3" fill="#e2574c"/><circle cx="680" cy="400" r="3" fill="#e2574c"/><circle cx="720" cy="400" r="3" fill="#e2574c"/><circle cx="760" cy="400" r="3" fill="#e2574c"/><circle cx="20" cy="440" r="3" fill="#e2574c"/><circle cx="60" cy="440" r="3" fill="#e2574c"/><circle cx="100" cy="440" r="3" fill="#e2574c"/><circle cx="140" cy="440" r="3" fill="#e2574c"/><circle cx="180" cy="440" r="3" fill="#e2574c"/><circle cx="220" cy="440" r="3" fill="#e2574c"/><circle cx="260" cy="440" r="3" fill="#e2574c"/><circle cx="300" cy="440" r="3" fill="#e2574c"/><circle cx="340" cy="440" r="3" fill="#e2574c"/><circle cx="380" cy="440" r="3" fill="#e2574c"/><circle cx="420" cy="440" r="3" fill="#e2574c"/><circle cx="460" cy="440" r="3" fill="#e2574c"/><circle cx="500" cy="440" r="3" fill="#e2574c"/><circle cx="540" cy="440" r="3" fill="#e2574c"/><circle cx="580" cy="440" r="3" fill="#e2574c"/><circle cx="620" cy="440" r="3" fill="#e2574c"/><circle cx="660" cy="440" r="3" fill="#e2574c"/><circle cx="700" cy="440" r="3" fill="#e2574c"/><circle cx="740" cy="440" r="3" fill="#e2574c"/><circle cx="780" cy="440" r="3" fill="#e2574c"/><circle cx="0" cy="480" r="3" fill="#e2574c"/><circle cx="40" cy="480" r="3" fill="#e2574c"/><circle cx="80" cy="480" r="3" fill="#e2574c"/><circle cx="120" cy="480" r="3" fill="#e2574c"/><circle cx="160" cy="480" r="3" fill="#e2574c"/><circle cx="200" cy="480" r="3" fill="#e2574c"/><circle cx="240" cy="480" r="3" fill="#e2574c"/><circle cx="280" cy="480" r="3" fill="#e2574c"/><circle cx="320" cy="480" r="3" fill="#e2574c"/><circle cx="360" cy="480" r="3" fill="#e2574c"/><circle cx="400" cy="480" r="3" fill="#e2574c"/><circle cx="440" cy="480" r="3" fill="#e2574c"/><circle cx="480" cy="480" r="3" fill="#e2574c"/><circle cx="520" cy="480" r="3" fill="#e2574c"/><circle cx="560" cy="480" r="3" fill="#e2574c"/><circle cx="600" cy="480" r="3" fill="#e2574c"/><circle cx="640" cy="480" r="3" fill="#e2574c"/><circle cx="680" cy="480" r="3" fill="#e2574c"/><circle cx="720" cy="480" r="3" fill="#e2574c"/><circle cx="760" cy="480" r="3" fill="#e2574c"/><circle cx="20" cy="520" r="3" fill="#e2574c"/><circle cx="60" cy="520" r="3" fill="#e2574c"/><circle cx="100" cy="520" r="3" fill="#e2574c"/><circle cx="140" cy="520" r="3" fill="#e2574c"/><circle cx="180" cy="520" r="3" fill="#e2574c"/><circle cx="220" cy="520" r="3" fill="#e2574c"/><circle cx="260" cy="520" r="3" fill="#e2574c"/><circle cx="300" cy="520" r="3" fill="#e2574c"/><circle cx="340" cy="520" r="3" fill="#e2574c"/><circle cx="380" cy="520" r="3" fill="#e2574c"/><circle cx="420" cy="520" r="3" fill="#e2574c"/><circle cx="460" cy="520" r="3" fill="#e2574c"/><circle cx="500" cy="520" r="3" fill="#e2574c"/><circle cx="540" cy="520" r="3" fill="#e2574c"/><circle cx="580" cy="520" r="3" fill="#e2574c"/><circle cx="620" cy="520" r="3" fill="#e2574c"/><circle cx="660" cy="520" r="3" fill="#e2574c"/><circle cx="700" cy="520" r="3" fill="#e2574c"/><circle cx="740" cy="520" r="3" fill="#e2574c"/><circle cx="780" cy="520" r="3" fill="#e2574c"/><circle cx="0" cy="560" r="3" fill="#e2574c"/><circle cx="40" cy="560" r="3" fill="#e2574c"/><circle cx="80" cy="560" r="3" fill="#e2574c"/><circle cx="120" cy="560" r="3" fill="#e2574c"/><circle cx="160" cy="560" r="3" fill="#e2574c"/><circle cx="200" cy="560" r="3" fill="#e2574c"/><circle cx="240" cy="560" r="3" fill="#e2574c"/><circle cx="280" cy="560" r="3" fill="#e2574c"/><circle cx="320" cy="560" r="3" fill="#e2574c"/><circle cx="360" cy="560" r="3" fill="#e2574c"/><circle cx="400" cy="560" r="3" fill="#e2574c"/><circle cx="440" cy="560" r="3" fill="#e2574c"/><circle cx="480" cy="560" r="3" fill="#e2574c"/><circle cx="520" cy="560" r="3" fill="#e2574c"/><circle cx="560" cy="560" r="3" fill="#e2574c"/><circle cx="600" cy="560" r="3" fill="#e2574c"/><circle cx="640" cy="560" r="3" fill="#e2574c"/><circle cx="680" cy="560" r="3" fill="#e2574c"/><circle cx="720" cy="560" r="3" fill="#e2574c"/><circle cx="760" cy="560" r="3" fill="#e2574c"/><ellipse cx="414" cy="332" rx="255" ry="251" fill="url(#shadow)"/><circle cx="400" cy="310" r="232" fill="#ffffff" stroke="#e0dcd4" stroke-width="3"/><g transform="rotate(90 615 310)"><path d="M606,319 v-18 h18 v13 h-8 v-6" stroke="#c62828" stroke-width="3" fill="none"/></g><g transform="rotate(105 608 366)"><path d="M599,375 v-18 h18 v13 h-8 v-6" stroke="#c62828" stroke-width="3" fill="none"/></g><g transform="rotate(120 586 418)"><path d="M577,427 v-18 h18 v13 h-8 v-6" stroke="#c62828" stroke-width="3" fill="none"/></g><g transform="rotate(135 552 462)"><path d="M543,471 v-18 h18 v13 h-8 v-6" stroke="#c62828" stroke-width="3" fill="none"/></g><g transform="rotate(150 508 496)"><path d="M498,505 v-18 h18 v13 h-8 v-6" stroke="#c62828" stroke-width="3" fill="none"/></g><g transform="rotate(165 456 518)"><path d="M447,527 v-18 h18 v13 h-8 v-6" stroke="#c62828" stroke-width="3" fill="none"/></g><g transform="rotate(180 400 525)"><path d="M391,534 v-18 h18 v13 h-8 v-6" stroke="#c62828" stroke-width="3" fill="none"/></g><g transform="rotate(195 344 518)"><path d="M335,527 v-18 h18 v13 h-8 v-6" stroke="#c62828" stroke-width="3" fill="none"/></g><g transform="rotate(210 293 496)"><path d="M283,505 v-18 h18 v13 h-8 v-6" stroke="#c62828" stroke-width="3" fill="none"/></g><g transform="rotate(225 248 462)"><path d="M239,471 v-18 h18 v13 h-8 v-6" stroke="#c62828" stroke-width="3" fill="none"/></g><g transform="rotate(240 214 418)"><path d="M205,427 v-18 h18 v13 h-8 v-6" stroke="#c62828" stroke-width="3" fill="none"/></g><g transform="rotate(255 192 366)"><path d="M183,375 v-18 h18 v13 h-8 v-6" stroke="#c62828" stroke-width="3" fill="none"/></g><g transform="rotate(270 185 310)"><path d="M176,319 v-18 h18 v13 h-8 v-6" stroke="#c62828" stroke-width="3" fill="none"/></g><g transform="rotate(285 192 254)"><path d="M183,263 v-18 h18 v13 h-8 v-6" stroke="#c62828" stroke-width="3" fill="none"/></g><g transform="rotate(300 214 203)"><path d="M205,212 v-18 h18 v13 h-8 v-6" stroke="#c62828" stroke-width="3" fill="none"/></g><g transform="rotate(315 248 158)"><path d="M239,167 v-18 h18 v13 h-8 v-6" stroke="#c62828" stroke-width="3" fill="none"/></g><g transform="rotate(330 292 124)"><path d="M283,133 v-18 h18 v13 h-8 v-6" stroke="#c62828" stroke-width="3" fill="none"/></g><g transform="rotate(345 344 102)"><path d="M335,111 v-18 h18 v13 h-8 v-6" stroke="#c62828" stroke-width="3" fill="none"/></g><g transform="rotate(360 400 95)"><path d="M391,104 v-18 h18 v13 h-8 v-6" stroke="#c62828" stroke-width="3" fill="none"/></g><g transform="rotate(375 456 102)"><path d="M447,111 v-18 h18 v13 h-8 v-6" stroke="#c62828" stroke-width="3" fill="none"/></g><g transform="rotate(390 508 124)"><path d="M498,133 v-18 h18 v13 h-8 v-6" stroke="#c62828" stroke-width="3" fill="none"/></g><g transform="rotate(405 552 158)"><path d="M543,167 v-18 h18 v13 h-8 v-6" stroke="#c62828" stroke-width="3" fill="none"/></g><g transform="rotate(420 586 202)"><path d="M577,212 v-18 h18 v13 h-8 v-6" stroke="#c62828" stroke-width="3" fill="none"/></g><g transform="rotate(435 608 254)"><path d="M599,263 v-18 h18 v13 h-8 v-6" stroke="#c62828" stroke-width="3" fill="none"/></g><circle cx="400" cy="310" r="198" fill="#f4f1ea"/><circle cx="400" cy="310" r="188" fill="#e3a43a"/><path d="M417.5,320.9 Q421.9,329.3 417.4,337.6 Q412.9,346.0 402.0,351.7 Q391.0,357.4 382.2,348.7 Q373.4,340.0 374.7,329.8 Q376.0,319.7 384.2,313.2 Q392.4,306.8 402.7,309.6 Q413.1,312.4 417.5,320.9 Z" fill="#eeb54a"/><path d="M311.0,346.4 Q320.0,354.8 313.4,366.0 Q306.8,377.2 294.1,377.0 Q281.4,376.7 271.9,371.1 Q262.5,365.4 265.5,356.1 Q268.5,346.8 273.9,335.9 Q279.4,325.0 290.7,331.4 Q302.0,337.9 311.0,346.4 Z" fill="#eeb54a"/><path d="M456.7,390.8 Q459.1,398.8 458.9,409.3 Q458.7,419.8 447.1,418.3 Q435.5,416.9 427.2,412.5 Q418.8,408.0 421.3,399.9 Q423.9,391.8 430.2,388.0 Q436.4,384.3 445.4,383.5 Q454.3,382.7 456.7,390.8 Z" fill="#eeb54a"/><path d="M264.2,260.1 Q274.2,271.0 262.8,280.3 Q251.3,289.6 240.9,288.8 Q230.5,288.0 221.5,284.3 Q212.5,280.6 215.4,272.2 Q218.2,263.8 224.1,257.8 Q229.9,251.8 242.0,250.5 Q254.1,249.2 264.2,260.1 Z" fill="#eeb54a"/><path d="M459.2,141.3 Q462.1,150.7 457.7,158.4 Q453.4,166.1 444.7,165.8 Q436.0,165.5 428.0,162.3 Q420.1,159.2 422.6,151.8 Q425.1,144.3 429.4,135.5 Q433.6,126.6 445.0,129.2 Q456.4,131.9 459.2,141.3 Z" fill="#eeb54a"/><path d="M469.4,264.5 Q470.2,278.5 464.0,286.5 Q457.8,294.4 447.8,298.1 Q437.9,301.8 423.2,297.8 Q408.4,293.9 416.5,282.0 Q424.5,270.2 430.2,258.7 Q435.8,247.2 452.2,248.9 Q468.6,250.5 469.4,264.5 Z" fill="#eeb54a"/><path d="M540.6,291.8 Q550.0,298.3 543.4,307.9 Q536.7,317.5 524.9,320.7 Q513.2,323.9 508.6,314.5 Q504.0,305.1 500.4,296.7 Q496.7,288.4 505.1,281.1 Q513.5,273.9 522.3,279.6 Q531.2,285.3 540.6,291.8 Z" fill="#eeb54a"/><path d="M317.5,419.7 Q323.5,426.0 319.6,434.6 Q315.8,443.3 305.9,443.4 Q296.0,443.6 289.3,438.7 Q282.6,433.7 283.9,426.6 Q285.2,419.4 290.3,412.7 Q295.4,405.9 303.5,409.7 Q311.6,413.5 317.5,419.7 Z" fill="#eeb54a"/><path d="M446.3,163.7 Q449.2,170.7 447.2,178.6 Q445.1,186.6 436.1,186.4 Q427.1,186.2 417.7,183.4 Q408.4,180.5 412.2,172.4 Q416.0,164.2 421.2,158.3 Q426.4,152.5 434.9,154.6 Q443.4,156.8 446.3,163.7 Z" fill="#eeb54a"/><path d="M411.7,447.5 Q419.1,456.4 413.0,466.7 Q406.8,477.1 394.8,477.9 Q382.8,478.8 378.3,470.8 Q373.8,462.7 373.9,456.4 Q374.0,450.1 379.3,445.5 Q384.6,440.9 394.4,439.7 Q404.2,438.6 411.7,447.5 Z" fill="#eeb54a"/><path d="M360.7,447.4 Q359.9,456.4 359.7,464.4 Q359.6,472.4 350.1,474.1 Q340.5,475.8 337.1,468.7 Q333.7,461.5 331.5,455.5 Q329.4,449.4 335.3,444.4 Q341.1,439.3 351.3,438.8 Q361.5,438.3 360.7,447.4 Z" fill="#eeb54a"/><path d="M519.7,427.6 Q527.9,437.0 518.8,445.4 Q509.8,453.8 500.1,454.3 Q490.4,454.8 484.8,449.3 Q479.2,443.8 473.1,434.3 Q467.0,424.9 477.9,418.9 Q488.8,413.0 500.2,415.6 Q511.5,418.2 519.7,427.6 Z" fill="#eeb54a"/><path d="M582.0,347.2 Q587.7,354.9 584.2,365.2 Q580.7,375.4 569.9,372.3 Q559.0,369.1 547.5,367.7 Q536.1,366.4 540.2,356.7 Q544.3,347.0 551.8,344.4 Q559.2,341.8 567.7,340.7 Q576.2,339.5 582.0,347.2 Z" fill="#eeb54a"/><path d="M513.8,300.9 Q521.3,307.0 512.9,312.1 Q504.5,317.2 497.3,322.7 Q490.1,328.2 484.3,321.3 Q478.5,314.4 476.6,306.2 Q474.7,298.0 482.7,293.2 Q490.8,288.3 498.6,291.5 Q506.4,294.7 513.8,300.9 Z" fill="#eeb54a"/><path d="M281,416 q11,-9 22,0 t22,0" stroke="#f6dc8a" stroke-width="5" fill="none" transform="rotate(82 303 416)"/><path d="M307,340 q11,-9 22,0 t22,0" stroke="#f6dc8a" stroke-width="5" fill="none" transform="rotate(138 329 340)"/><path d="M242,296 q11,-9 22,0 t22,0" stroke="#f6dc8a" stroke-width="5" fill="none" transform="rotate(27 264 296)"/><path d="M488,330 q11,-9 22,0 t22,0" stroke="#f6dc8a" stroke-width="5" fill="none" transform="rotate(93 510 330)"/><path d="M390,237 q11,-9 22,0 t22,0" stroke="#f6dc8a" stroke-width="5" fill="none" transform="rotate(81 412 237)"/><path d="M269,263 q11,-9 22,0 t22,0" stroke="#f6dc8a" stroke-width="5" fill="none" transform="rotate(107 291 263)"/><path d="M415,252 q11,-9 22,0 t22,0" stroke="#f6dc8a" stroke-width="5" fill="none" transform="rotate(111 437 252)"/><path d="M472,401 q11,-9 22,0 t22,0" stroke="#f6dc8a" stroke-width="5" fill="none" transform="rotate(1 494 401)"/><path d="M378,201 q11,-9 22,0 t22,0" stroke="#f6dc8a" stroke-width="5" fill="none" transform="rotate(147 400 201)"/><path d="M405,291 q11,-9 22,0 t22,0" stroke="#f6dc8a" stroke-width="5" fill="none" transform="rotate(110 427 291)"/><path d="M382,213 q11,-9 22,0 t22,0" stroke="#f6dc8a" stroke-width="5" fill="none" transform="rotate(165 404 213)"/><path d="M310,192 q11,-9 22,0 t22,0" stroke="#f6dc8a" stroke-width="5" fill="none" transform="rotate(67 332 192)"/><path d="M416,274 q11,-9 22,0 t22,0" stroke="#f6dc8a" stroke-width="5" fill="none" transform="rotate(175 438 274)"/><path d="M321,455 q11,-9 22,0 t22,0" stroke="#f6dc8a" stroke-width="5" fill="none" transform="rotate(176 343 455)"/><path d="M394,411 q11,-9 22,0 t22,0" stroke="#f6dc8a" stroke-width="5" fill="none" transform="rotate(14 416 411)"/><path d="M521,291 q11,-9 22,0 t22,0" stroke="#f6dc8a" stroke-width="5" fill="none" transform="rotate(61 543 291)"/><path d="M517,277 q11,-9 22,0 t22,0" stroke="#f6dc8a" stroke-width="5" fill="none" transform="rotate(16 539 277)"/><path d="M272,355 q11,-9 22,0 t22,0" stroke="#f6dc8a" stroke-width="5" fill="none" transform="rotate(16 294 355)"/><path d="M334,408 q11,-9 22,0 t22,0" stroke="#f6dc8a" stroke-width="5" fill="none" transform="rotate(162 356 408)"/><path d="M290,301 q11,-9 22,0 t22,0" stroke="#f6dc8a" stroke-width="5" fill="none" transform="rotate(180 312 301)"/><path d="M527,331 q11,-9 22,0 t22,0" stroke="#f6dc8a" stroke-width="5" fill="none" transform="rotate(99 549 331)"/><path d="M525,331 q11,-9 22,0 t22,0" stroke="#f6dc8a" stroke-width="5" fill="none" transform="rotate(42 547 331)"/><path d="M255,355 q11,-9 22,0 t22,0" stroke="#f6dc8a" stroke-width="5" fill="none" transform="rotate(125 277 355)"/><path d="M410,422 q11,-9 22,0 t22,0" stroke="#f6dc8a" stroke-width="5" fill="none" transform="rotate(6 432 422)"/><path d="M315,161 q11,-9 22,0 t22,0" stroke="#f6dc8a" stroke-width="5" fill="none" transform="rotate(43 337 161)"/><path d="M281,413 q11,-9 22,0 t22,0" stroke="#f6dc8a" stroke-width="5" fill="none" transform="rotate(95 303 413)"/><path d="M279,312 q11,-9 22,0 t22,0" stroke="#f6dc8a" stroke-width="5" fill="none" transform="rotate(28 301 312)"/><path d="M292,334 q11,-9 22,0 t22,0" stroke="#f6dc8a" stroke-width="5" fill="none" transform="rotate(161 314 334)"/><path d="M429,190 q11,-9 22,0 t22,0" stroke="#f6dc8a" stroke-width="5" fill="none" transform="rotate(110 451 190)"/><path d="M457,453 q11,-9 22,0 t22,0" stroke="#f6dc8a" stroke-width="5" fill="none" transform="rotate(115 479 453)"/><path d="M355.1,384.3 Q362.3,388.7 355.5,393.6 Q348.7,398.5 341.9,403.1 Q335.2,407.7 329.9,401.6 Q324.5,395.5 325.9,389.3 Q327.3,383.2 332.1,379.6 Q336.8,376.0 342.3,377.9 Q347.9,379.9 355.1,384.3 Z" fill="#b97a45" stroke="#96592c" stroke-width="3"/><path d="M444.0,244.7 Q445.7,250.5 444.7,257.2 Q443.8,263.8 436.7,261.8 Q429.6,259.8 424.5,257.9 Q419.3,256.0 419.6,250.6 Q419.9,245.3 424.3,241.3 Q428.6,237.3 435.5,238.1 Q442.3,238.8 444.0,244.7 Z" fill="#b97a45" stroke="#96592c" stroke-width="3"/><path d="M504.4,336.7 Q510.8,342.5 506.2,350.4 Q501.6,358.2 493.3,355.7 Q485.0,353.2 480.6,350.4 Q476.3,347.5 473.6,341.4 Q471.0,335.3 477.7,332.6 Q484.5,329.9 491.2,330.4 Q498.0,330.9 504.4,336.7 Z" fill="#b97a45" stroke="#96592c" stroke-width="3"/><path d="M424.1,310.3 Q428.3,317.5 422.2,322.6 Q416.0,327.6 409.5,330.8 Q402.9,334.0 397.1,329.2 Q391.4,324.4 391.5,317.6 Q391.7,310.9 397.1,305.1 Q402.5,299.4 411.2,301.3 Q419.9,303.1 424.1,310.3 Z" fill="#b97a45" stroke="#96592c" stroke-width="3"/><path d="M463.3,275.4 Q465.0,282.1 461.1,286.3 Q457.2,290.5 452.1,291.8 Q447.0,293.1 443.7,289.6 Q440.4,286.2 440.5,282.2 Q440.6,278.2 443.6,274.1 Q446.7,270.0 454.1,269.3 Q461.6,268.7 463.3,275.4 Z" fill="#b97a45" stroke="#96592c" stroke-width="3"/><path d="M440.2,244.8 Q442.2,250.8 441.4,258.3 Q440.6,265.7 432.6,264.0 Q424.5,262.4 414.9,261.4 Q405.2,260.5 405.4,251.0 Q405.7,241.4 414.0,236.0 Q422.3,230.5 430.2,234.6 Q438.2,238.8 440.2,244.8 Z" fill="#b97a45" stroke="#96592c" stroke-width="3"/><path d="M405.3,301.4 Q408.2,309.2 403.2,314.6 Q398.1,320.0 390.7,325.1 Q383.2,330.1 378.0,323.1 Q372.7,316.0 370.9,308.4 Q369.1,300.7 376.1,294.3 Q383.1,287.8 392.8,290.7 Q402.4,293.6 405.3,301.4 Z" fill="#b97a45" stroke="#96592c" stroke-width="3"/><path d="M324.2,382.7 Q331.8,386.4 325.5,391.7 Q319.2,396.9 313.1,397.2 Q307.1,397.5 303.1,394.3 Q299.2,391.1 294.7,384.5 Q290.2,377.9 298.3,375.4 Q306.5,372.9 311.5,375.9 Q316.6,378.9 324.2,382.7 Z" fill="#b97a45" stroke="#96592c" stroke-width="3"/><path d="M413.2,416.7 Q419.9,420.2 416.4,427.3 Q413.0,434.4 405.3,432.5 Q397.7,430.6 393.6,427.7 Q389.5,424.8 389.8,420.3 Q390.1,415.7 394.0,413.2 Q397.9,410.7 402.2,412.0 Q406.4,413.3 413.2,416.7 Z" fill="#b97a45" stroke="#96592c" stroke-width="3"/><path d="M309,388 q18,-10 36,0" stroke="#f8e6a6" stroke-width="6" fill="none" stroke-linecap="round"/><path d="M365,287 q18,-10 36,0" stroke="#f8e6a6" stroke-width="6" fill="none" stroke-linecap="round"/><path d="M414,215 q18,-10 36,0" stroke="#f8e6a6" stroke-width="6" fill="none" stroke-linecap="round"/><path d="M454,245 q18,-10 36,0" stroke="#f8e6a6" stroke-width="6" fill="none" stroke-linecap="round"/><path d="M387,237 q18,-10 36,0" stroke="#f8e6a6" stroke-width="6" fill="none" stroke-linecap="round"/><path d="M319,219 q18,-10 36,0" stroke="#f8e6a6" stroke-width="6" fill="none" stroke-linecap="round"/><path d="M354,293 q18,-10 36,0" stroke="#f8e6a6" stroke-width="6" fill="none" stroke-linecap="round"/><path d="M339,355 q18,-10 36,0" stroke="#f8e6a6" stroke-width="6" fill="none" stroke-linecap="round"/><path d="M363,182 q18,-10 36,0" stroke="#f8e6a6" stroke-width="6" fill="none" stroke-linecap="round"/><path d="M418,268 q18,-10 36,0" stroke="#f8e6a6" stroke-width="6" fill="none" stroke-linecap="round"/><g transform="rotate(58 439 358)"><rect x="423" y="353" width="32" height="10" rx="4" fill="#f1f3e0" stroke="#cfd6a8" stroke-width="1.5"/><rect x="423" y="353" width="9" height="10" rx="3" fill="#b8d58a"/></g><g transform="rotate(111 295 316)"><rect x="279" y="311" width="32" height="10" rx="4" fill="#f1f3e0" stroke="#cfd6a8" stroke-width="1.5"/><rect x="279" y="311" width="9" height="10" rx="3" fill="#b8d58a"/></g><g transform="rotate(72 372 296)"><rect x="356" y="291" width="32" height="10" rx="4" fill="#f1f3e0" stroke="#cfd6a8" stroke-width="1.5"/><rect x="356" y="291" width="9" height="10" rx="3" fill="#b8d58a"/></g><g transform="rotate(23 497 242)"><rect x="481" y="237" width="32" height="10" rx="4" fill="#f1f3e0" stroke="#cfd6a8" stroke-width="1.5"/><rect x="481" y="237" width="9" height="10" rx="3" fill="#b8d58a"/></g><g transform="rotate(33 340 279)"><rect x="324" y="274" width="32" height="10" rx="4" fill="#f1f3e0" stroke="#cfd6a8" stroke-width="1.5"/><rect x="324" y="274" width="9" height="10" rx="3" fill="#b8d58a"/></g><g transform="rotate(87 319 356)"><rect x="303" y="351" width="32" height="10" rx="4" fill="#f1f3e0" stroke="#cfd6a8" stroke-width="1.5"/><rect x="303" y="351" width="9" height="10" rx="3" fill="#b8d58a"/></g><g transform="rotate(161 374 299)"><rect x="358" y="294" width="32" height="10" rx="4" fill="#f1f3e0" stroke="#cfd6a8" stroke-width="1.5"/><rect x="358" y="294" width="9" height="10" rx="3" fill="#b8d58a"/></g><g transform="rotate(37 316 323)"><rect x="300" y="318" width="32" height="10" rx="4" fill="#f1f3e0" stroke="#cfd6a8" stroke-width="1.5"/><rect x="300" y="318" width="9" height="10" rx="3" fill="#b8d58a"/></g><g transform="rotate(74 399 283)"><rect x="383" y="278" width="32" height="10" rx="4" fill="#f1f3e0" stroke="#cfd6a8" stroke-width="1.5"/><rect x="383" y="278" width="9" height="10" rx="3" fill="#b8d58a"/></g><g transform="rotate(70 328 366)"><rect x="312" y="361" width="32" height="10" rx="4" fill="#f1f3e0" stroke="#cfd6a8" stroke-width="1.5"/><rect x="312" y="361" width="9" height="10" rx="3" fill="#b8d58a"/></g><ellipse cx="467" cy="216" rx="13" ry="4" fill="#ffffff" opacity="0.3" transform="rotate(-25 467 216)"/><ellipse cx="532" cy="317" rx="13" ry="4" fill="#ffffff" opacity="0.3" transform="rotate(-25 532 317)"/><ellipse cx="269" cy="256" rx="13" ry="4" fill="#ffffff" opacity="0.3" transform="rotate(-25 269 256)"/><ellipse cx="525" cy="230" rx="13" ry="4" fill="#ffffff" opacity="0.3" transform="rotate(-25 525 230)"/><ellipse cx="433" cy="332" rx="13" ry="4" fill="#ffffff" opacity="0.3" transform="rotate(-25 433 332)"/><ellipse cx="515" cy="213" rx="13" ry="4" fill="#ffffff" opacity="0.3" transform="rotate(-25 515 213)"/><ellipse cx="405" cy="334" rx="13" ry="4" fill="#ffffff" opacity="0.3" transform="rotate(-25 405 334)"/><ellipse cx="396" cy="302" rx="13" ry="4" fill="#ffffff" opacity="0.3" transform="rotate(-25 396 302)"/><g transform="rotate(-35 660 480)"><ellipse cx="660" cy="480" rx="44" ry="28" fill="#ffffff" stroke="#d9d4ca" stroke-width="3"/><ellipse cx="660" cy="480" rx="30" ry="18" fill="#f4f1ea"/><rect x="698" y="470" width="95" height="20" rx="9" fill="#ffffff" stroke="#d9d4ca" stroke-width="3"/></g></svg>