<svg xmlns="http://www.w3.org/2000/svg" viewBox="0 0 800 600" width="800" height="600"><defs><radialGradient id="shadow"><stop offset="0.7" stop-color="#000" stop-opacity="0.25"/><stop offset="1" stop-color="#000" stop-opacity="0"/></radialGradient></defs><rect width="800" height="600" fill="#cfa978"/><rect x="0" y="0" width="800" height="2" fill="#a9824f" opacity="0.5"/><path d="M0,30 C200,22 400,38 800,28" stroke="#a9824f" stroke-width="1.2" fill="none" opacity="0.35"/><rect x="0" y="60" width="800" height="2" fill="#a9824f" opacity="0.5"/><path d="M0,90 C200,82 400,98 800,88" stroke="#a9824f" stroke-width="1.2" fill="none" opacity="0.35"/><rect x="0" y="120" width="800" height="2" fill="#a9824f" opacity="0.5"/><path d="M0,150 C200,142 400,158 800,148" stroke="#a9824f" stroke-width="1.2" fill="none" opacity="0.35"/><rect x="0" y="180" width="800" height="2" fill="#a9824f" opacity="0.5"/><path d="M0,210 C200,202 400,218 800,208" stroke="#a9824f" stroke-width="1.2" fill="none" opacity="0.35"/><rect x="0" y="240" width="800" height="2" fill="#a9824f" opacity="0.5"/><path d="M0,270 C200,262 400,278 800,268" stroke="#a9824f" stroke-width="1.2" fill="none" opacity="0.35"/><rect x="0" y="300" width="800" height="2" fill="#a9824f" opacity="0.5"/><path d="M0,330 C200,322 400,338 800,328" stroke="#a9824f" stroke-width="1.2" fill="none" opacity="0.35"/><rect x="0" y="360" width="800" height="2" fill="#a9824f" opacity="0.5"/><path d="M0,390 C200,382 400,398 800,388" stroke="#a9824f" stroke-width="1.2" fill="none" opacity="0.35"/><rect x="0" y="420" width="800" height="2" fill="#a9824f" opacity="0.5"/><path d="M0,450 C200,442 400,458 800,448" stroke="#a9824f" stroke-width="1.2" fill="none" opacity="0.35"/><rect x="0" y="480" width="800" height="2" fill="#a9824f" opacity="0.5"/><path d="M0,510 C200,502 400,518 800,508" stroke="#a9824f" stroke-width="1.2" fill="none" opacity="0.35"/><rect x="0" y="540" width="800" height="2" fill="#a9824f" opacity="0.5"/><path d="M0,570 C200,562 400,578 800,568" stroke="#a9824f" stroke-width="1.2" fill="none" opacity="0.35"/><rect x="38" y="38" width="724" height="524" rx="22" fill="#000" opacity="0.18"/><rect x="30" y="30" width="724" height="524" rx="22" fill="#5a2a1a"/><rect x="44" y="44" width="696" height="496" rx="16" fill="#6e3420"/><ellipse cx="400" cy="190" rx="260" ry="118" fill="#ffffff" stroke="#e3e0da" stroke-width="3"/><g transform="translate(0,0) scale(1,0.72) translate(0,74)"><path d="M544.8,156.9 Q562.3,190.0 543.4,222.4 Q524.6,254.7 499.5,280.3 Q474.4,306.0 437.2,310.6 Q400.0,315.2 358.8,316.8 Q317.6,318.5 298.3,285.7 Q279.1,252.8 261.9,221.4 Q244.8,190.0 256.2,155.6 Q267.5,121.2 294.7,94.6 Q321.8,68.1 360.9,62.7 Q400.0,57.4 436.6,66.7 Q473.2,75.9 500.3,99.9 Q527.3,123.9 544.8,156.9 Z" fill="#f3ead0"/></g><g transform="rotate(50 250 161)"><path d="M234,161 q16,-7 32,0" stroke="#fdfbf0" stroke-width="5" fill="none" stroke-linecap="round"/><circle cx="234" cy="161" r="3.2" fill="#f2e3a0"/></g><g transform="rotate(17 498 181)"><path d="M482,181 q16,-7 32,0" stroke="#fdfbf0" stroke-width="5" fill="none" stroke-linecap="round"/><circle cx="482" cy="181" r="3.2" fill="#f2e3a0"/></g><g transform="rotate(177 236 165)"><path d="M220,165 q16,-7 32,0" stroke="#fdfbf0" stroke-width="5" fill="none" stroke-linecap="round"/><circle cx="220" cy="165" r="3.2" fill="#f2e3a0"/></g><g transform="rotate(138 234 182)"><path d="M218,182 q16,-7 32,0" stroke="#fdfbf0" stroke-width="5" fill="none" stroke-linecap="round"/><circle cx="218" cy="182" r="3.2" fill="#f2e3a0"/></g><g transform="rotate(159 267 239)"><path d="M251,239 q16,-7 32,0" stroke="#fdfbf0" stroke-width="5" fill="none" stroke-linecap="round"/><circle cx="251" cy="239" r="3.2" fill="#f2e3a0"/></g><g transform="rotate(168 514 131)"><path d="M498,131 q16,-7 32,0" stroke="#fdfbf0" stroke-width="5" fill="none" stroke-linecap="round"/><circle cx="498" cy="131" r="3.2" fill="#f2e3a0"/></g><g transform="rotate(143 305 238)"><path d="M289,238 q16,-7 32,0" stroke="#fdfbf0" stroke-width="5" fill="none" stroke-linecap="round"/><circle cx="289" cy="238" r="3.2" fill="#f2e3a0"/></g><g transform="rotate(139 408 230)"><path d="M392,230 q16,-7 32,0" stroke="#fdfbf0" stroke-width="5" fill="none" stroke-linecap="round"/><circle cx="392" cy="230" r="3.2" fill="#f2e3a0"/></g><g transform="rotate(173 505 160)"><path d="M489,160 q16,-7 32,0" stroke="#fdfbf0" stroke-width="5" fill="none" stroke-linecap="round"/><circle cx="489" cy="160" r="3.2" fill="#f2e3a0"/></g><g transform="rotate(22 443 167)"><path d="M427,167 q16,-7 32,0" stroke="#fdfbf0" stroke-width="5" fill="none" stroke-linecap="round"/><circle cx="427" cy="167" r="3.2" fill="#f2e3a0"/></g><g transform="rotate(131 530 215)"><path d="M514,215 q16,-7 32,0" stroke="#fdfbf0" stroke-width="5" fill="none" stroke-linecap="round"/><circle cx="514" cy="215" r="3.2" fill="#f2e3a0"/></g><g transform="rotate(167 363 134)"><path d="M347,134 q16,-7 32,0" stroke="#fdfbf0" stroke-width="5" fill="none" stroke-linecap="round"/><circle cx="347" cy="134" r="3.2" fill="#f2e3a0"/></g><g transform="rotate(157 496 197)"><path d="M480,197 q16,-7 32,0" stroke="#fdfbf0" stroke-width="5" fill="none" stroke-linecap="round"/><circle cx="480" cy="197" r="3.2" fill="#f2e3a0"/></g><g transform="rotate(64 320 254)"><path d="M304,254 q16,-7 32,0" stroke="#fdfbf0" stroke-width="5" fill="none" stroke-linecap="round"/><circle cx="304" cy="254" r="3.2" fill="#f2e3a0"/></g><g transform="rotate(154 458 145)"><path d="M442,145 q16,-7 32,0" stroke="#fdfbf0" stroke-width="5" fill="none" stroke-linecap="round"/><circle cx="442" cy="145" r="3.2" fill="#f2e3a0"/></g><g transform="rotate(10 316 230)"><path d="M300,230 q16,-7 32,0" stroke="#fdfbf0" stroke-width="5" fill="none" stroke-linecap="round"/><circle cx="300" cy="230" r="3.2" fill="#f2e3a0"/></g><g transform="rotate(23 425 178)"><path d="M409,178 q16,-7 32,0" stroke="#fdfbf0" stroke-width="5" fill="none" stroke-linecap="round"/><circle cx="409" cy="178" r="3.2" fill="#f2e3a0"/></g><g transform="rotate(133 548 185)"><path d="M532,185 q16,-7 32,0" stroke="#fdfbf0" stroke-width="5" fill="none" stroke-linecap="round"/><circle cx="532" cy="185" r="3.2" fill="#f2e3a0"/></g><g transform="rotate(158 291 161)"><path d="M275,161 q16,-7 32,0" stroke="#fdfbf0" stroke-width="5" fill="none" stroke-linecap="round"/><circle cx="275" cy="161" r="3.2" fill="#f2e3a0"/></g><g transform="rotate(123 407 265)"><path d="M391,265 q16,-7 32,0" stroke="#fdfbf0" stroke-width="5" fill="none" stroke-linecap="round"/><circle cx="391" cy="265" r="3.2" fill="#f2e3a0"/></g><g transform="rotate(9 407 255)"><path d="M391,255 q16,-7 32,0" stroke="#fdfbf0" stroke-width="5" fill="none" stroke-linecap="round"/><circle cx="391" cy="255" r="3.2" fill="#f2e3a0"/></g><g transform="rotate(43 414 113)"><path d="M398,113 q16,-7 32,0" stroke="#fdfbf0" stroke-width="5" fill="none" stroke-linecap="round"/><circle cx="398" cy="113" r="3.2" fill="#f2e3a0"/></g><g transform="rotate(13 373 150)"><path d="M357,150 q16,-7 32,0" stroke="#fdfbf0" stroke-width="5" fill="none" stroke-linecap="round"/><circle cx="357" cy="150" r="3.2" fill="#f2e3a0"/></g><g transform="rotate(157 252 217)"><path d="M236,217 q16,-7 32,0" stroke="#fdfbf0" stroke-width="5" fill="none" stroke-linecap="round"/><circle cx="236" cy="217" r="3.2" fill="#f2e3a0"/></g><g transform="rotate(131 436 164)"><path d="M420,164 q16,-7 32,0" stroke="#fdfbf0" stroke-width="5" fill="none" stroke-linecap="round"/><circle cx="420" cy="164" r="3.2" fill="#f2e3a0"/></g><g transform="rotate(107 423 191)"><path d="M407,191 q16,-7 32,0" stroke="#fdfbf0" stroke-width="5" fill="none" stroke-linecap="round"/><circle cx="407" cy="191" r="3.2" fill="#f2e3a0"/></g><g transform="rotate(97 270 185)"><path d="M254,185 q16,-7 32,0" stroke="#fdfbf0" stroke-width="5" fill="none" stroke-linecap="round"/><circle cx="254" cy="185" r="3.2" fill="#f2e3a0"/></g><g transform="rotate(69 382 192)"><path d="M366,192 q16,-7 32,0" stroke="#fdfbf0" stroke-width="5" fill="none" stroke-linecap="round"/><circle cx="366" cy="192" r="3.2" fill="#f2e3a0"/></g><g transform="rotate(170 438 167)"><path d="M422,167 q16,-7 32,0" stroke="#fdfbf0" stroke-width="5" fill="none" stroke-linecap="round"/><circle cx="422" cy="167" r="3.2" fill="#f2e3a0"/></g><g transform="rotate(98 315 235)"><path d="M299,235 q16,-7 32,0" stroke="#fdfbf0" stroke-width="5" fill="none" stroke-linecap="round"/><circle cx="299" cy="235" r="3.2" fill="#f2e3a0"/></g><g transform="rotate(84 531 234)"><path d="M515,234 q16,-7 32,0" stroke="#fdfbf0" stroke-width="5" fill="none" stroke-linecap="round"/><circle cx="515" cy="234" r="3.2" fill="#f2e3a0"/></g><g transform="rotate(44 281 159)"><path d="M265,159 q16,-7 32,0" stroke="#fdfbf0" stroke-width="5" fill="none" stroke-linecap="round"/><circle cx="265" cy="159" r="3.2" fill="#f2e3a0"/></g><g transform="rotate(91 385 194)"><path d="M369,194 q16,-7 32,0" stroke="#fdfbf0" stroke-width="5" fill="none" stroke-linecap="round"/><circle cx="369" cy="194" r="3.2" fill="#f2e3a0"/></g><g transform="rotate(154 538 168)"><path d="M522,168 q16,-7 32,0" stroke="#fdfbf0" stroke-width="5" fill="none" stroke-linecap="round"/><circle cx="522" cy="168" r="3.2" fill="#f2e3a0"/></g><g transform="rotate(25 380 219)"><path d="M364,219 q16,-7 32,0" stroke="#fdfbf0" stroke-width="5" fill="none" stroke-linecap="round"/><circle cx="364" cy="219" r="3.2" fill="#f2e3a0"/></g><g transform="rotate(128 487 148)"><path d="M471,148 q16,-7 32,0" stroke="#fdfbf0" stroke-width="5" fill="none" stroke-linecap="round"/><circle cx="471" cy="148" r="3.2" fill="#f2e3a0"/></g><g transform="rotate(139 342 237)"><path d="M326,237 q16,-7 32,0" stroke="#fdfbf0" stroke-width="5" fill="none" stroke-linecap="round"/><circle cx="326" cy="237" r="3.2" fill="#f2e3a0"/></g><g transform="rotate(129 429 134)"><path d="M413,134 q16,-7 32,0" stroke="#fdfbf0" stroke-width="5" fill="none" stroke-linecap="round"/><circle cx="413" cy="134" r="3.2" fill="#f2e3a0"/></g><g transform="rotate(113 388 268)"><path d="M372,268 q16,-7 32,0" stroke="#fdfbf0" stroke-width="5" fill="none" stroke-linecap="round"/><circle cx="372" cy="268" r="3.2" fill="#f2e3a0"/></g><g transform="rotate(15 290 208)"><path d="M274,208 q16,-7 32,0" stroke="#fdfbf0" stroke-width="5" fill="none" stroke-linecap="round"/><circle cx="274" cy="208" r="3.2" fill="#f2e3a0"/></g><g transform="rotate(12 295 126)"><path d="M279,126 q16,-7 32,0" stroke="#fdfbf0" stroke-width="5" fill="none" stroke-linecap="round"/><circle cx="279" cy="126" r="3.2" fill="#f2e3a0"/></g><g transform="rotate(83 397 267)"><path d="M381,267 q16,-7 32,0" stroke="#fdfbf0" stroke-width="5" fill="none" stroke-linecap="round"/><circle cx="381" cy="267" r="3.2" fill="#f2e3a0"/></g><g transform="rotate(19 378 167)"><path d="M362,167 q16,-7 32,0" stroke="#fdfbf0" stroke-width="5" fill="none" stroke-linecap="round"/><circle cx="362" cy="167" r="3.2" fill="#f2e3a0"/></g><g transform="rotate(6 503 224)"><path d="M487,224 q16,-7 32,0" stroke="#fdfbf0" stroke-width="5" fill="none" stroke-linecap="round"/><circle cx="487" cy="224" r="3.2" fill="#f2e3a0"/></g><g transform="rotate(156 426 187)"><path d="M410,187 q16,-7 32,0" stroke="#fdfbf0" stroke-width="5" fill="none" stroke-linecap="round"/><circle cx="410" cy="187" r="3.2" fill="#f2e3a0"/></g><g transform="rotate(150 281 135)"><path d="M265,135 q16,-7 32,0" stroke="#fdfbf0" stroke-width="5" fill="none" stroke-linecap="round"/><circle cx="265" cy="135" r="3.2" fill="#f2e3a0"/></g><g transform="rotate(24 309 177)"><path d="M293,177 q16,-7 32,0" stroke="#fdfbf0" stroke-width="5" fill="none" stroke-linecap="round"/><circle cx="293" cy="177" r="3.2" fill="#f2e3a0"/></g><g transform="rotate(23 305 245)"><path d="M289,245 q16,-7 32,0" stroke="#fdfbf0" stroke-width="5" fill="none" stroke-linecap="round"/><circle cx="289" cy="245" r="3.2" fill="#f2e3a0"/></g><g transform="rotate(128 498 142)"><path d="M482,142 q16,-7 32,0" stroke="#fdfbf0" stroke-width="5" fill="none" stroke-linecap="round"/><circle cx="482" cy="142" r="3.2" fill="#f2e3a0"/></g><g transform="rotate(141 452 239)"><path d="M436,239 q16,-7 32,0" stroke="#fdfbf0" stroke-width="5" fill="none" stroke-linecap="round"/><circle cx="436" cy="239" r="3.2" fill="#f2e3a0"/></g><g transform="rotate(68 427 263)"><path d="M411,263 q16,-7 32,0" stroke="#fdfbf0" stroke-width="5" fill="none" stroke-linecap="round"/><circle cx="411" cy="263" r="3.2" fill="#f2e3a0"/></g><g transform="rotate(34 337 213)"><path d="M321,213 q16,-7 32,0" stroke="#fdfbf0" stroke-width="5" fill="none" stroke-linecap="round"/><circle cx="321" cy="213" r="3.2" fill="#f2e3a0"/></g><g transform="rotate(107 339 116)"><path d="M323,116 q16,-7 32,0" stroke="#fdfbf0" stroke-width="5" fill="none" stroke-linecap="round"/><circle cx="323" cy="116" r="3.2" fill="#f2e3a0"/></g><g transform="rotate(63 410 176)"><path d="M394,176 q16,-7 32,0" stroke="#fdfbf0" stroke-width="5" fill="none" stroke-linecap="round"/><circle cx="394" cy="176" r="3.2" fill="#f2e3a0"/></g><g transform="rotate(70 369 158)"><path d="M353,158 q16,-7 32,0" stroke="#fdfbf0" stroke-width="5" fill="none" stroke-linecap="round"/><circle cx="353" cy="158" r="3.2" fill="#f2e3a0"/></g><g transform="rotate(8 405 258)"><path d="M389,258 q16,-7 32,0" stroke="#fdfbf0" stroke-width="5" fill="none" stroke-linecap="round"/><circle cx="389" cy="258" r="3.2" fill="#f2e3a0"/></g><g transform="rotate(175 462 181)"><path d="M446,181 q16,-7 32,0" stroke="#fdfbf0" stroke-width="5" fill="none" stroke-linecap="round"/><circle cx="446" cy="181" r="3.2" fill="#f2e3a0"/></g><g transform="rotate(152 473 179)"><path d="M457,179 q16,-7 32,0" stroke="#fdfbf0" stroke-width="5" fill="none" stroke-linecap="round"/><circle cx="457" cy="179" r="3.2" fill="#f2e3a0"/></g><g transform="rotate(137 285 166)"><path d="M269,166 q16,-7 32,0" stroke="#fdfbf0" stroke-width="5" fill="none" stroke-linecap="round"/><circle cx="269" cy="166" r="3.2" fill="#f2e3a0"/></g><g transform="rotate(155 565 193)"><path d="M549,193 q16,-7 32,0" stroke="#fdfbf0" stroke-width="5" fill="none" stroke-linecap="round"/><circle cx="549" cy="193" r="3.2" fill="#f2e3a0"/></g><g transform="rotate(140 339 148)"><path d="M323,148 q16,-7 32,0" stroke="#fdfbf0" stroke-width="5" fill="none" stroke-linecap="round"/><circle cx="323" cy="148" r="3.2" fill="#f2e3a0"/></g><g transform="rotate(41 496 152)"><path d="M480,152 q16,-7 32,0" stroke="#fdfbf0" stroke-width="5" fill="none" stroke-linecap="round"/><circle cx="480" cy="152" r="3.2" fill="#f2e3a0"/></g><g transform="rotate(30 364 158)"><path d="M348,158 q16,-7 32,0" stroke="#fdfbf0" stroke-width="5" fill="none" stroke-linecap="round"/><circle cx="348" cy="158" r="3.2" fill="#f2e3a0"/></g><g transform="rotate(70 522 220)"><path d="M506,220 q16,-7 32,0" stroke="#fdfbf0" stroke-width="5" fill="none" stroke-linecap="round"/><circle cx="506" cy="220" r="3.2" fill="#f2e3a0"/></g><g transform="rotate(150 545 213)"><path d="M529,213 q16,-7 32,0" stroke="#fdfbf0" stroke-width="5" fill="none" stroke-linecap="round"/><circle cx="529" cy="213" r="3.2" fill="#f2e3a0"/></g><g transform="rotate(144 293 127)"><path d="M277,127 q16,-7 32,0" stroke="#fdfbf0" stroke-width="5" fill="none" stroke-linecap="round"/><circle cx="277" cy="127" r="3.2" fill="#f2e3a0"/></g><g transform="rotate(172 569 188)"><path d="M553,188 q16,-7 32,0" stroke="#fdfbf0" stroke-width="5" fill="none" stroke-linecap="round"/><circle cx="553" cy="188" r="3.2" fill="#f2e3a0"/></g><g transform="rotate(34 469 224)"><path d="M453,224 q16,-7 32,0" stroke="#fdfbf0" stroke-width="5" fill="none" stroke-linecap="round"/><circle cx="453" cy="224" r="3.2" fill="#f2e3a0"/></g><g transform="rotate(129 274 157)"><path d="M258,157 q16,-7 32,0" stroke="#fdfbf0" stroke-width="5" fill="none" stroke-linecap="round"/><circle cx="258" cy="157" r="3.2" fill="#f2e3a0"/></g><g transform="rotate(43 449 121)"><path d="M433,121 q16,-7 32,0" stroke="#fdfbf0" stroke-width="5" fill="none" stroke-linecap="round"/><circle cx="433" cy="121" r="3.2" fill="#f2e3a0"/></g><g transform="rotate(41 403 150)"><path d="M387,150 q16,-7 32,0" stroke="#fdfbf0" stroke-width="5" fill="none" stroke-linecap="round"/><circle cx="387" cy="150" r="3.2" fill="#f2e3a0"/></g><g transform="rotate(178 406 230)"><path d="M390,230 q16,-7 32,0" stroke="#fdfbf0" stroke-width="5" fill="none" stroke-linecap="round"/><circle cx="390" cy="230" r="3.2" fill="#f2e3a0"/></g><g transform="rotate(180 484 167)"><path d="M468,167 q16,-7 32,0" stroke="#fdfbf0" stroke-width="5" fill="none" stroke-linecap="round"/><circle cx="468" cy="167" r="3.2" fill="#f2e3a0"/></g><g transform="rotate(110 532 238)"><path d="M516,238 q16,-7 32,0" stroke="#fdfbf0" stroke-width="5" fill="none" stroke-linecap="round"/><circle cx="516" cy="238" r="3.2" fill="#f2e3a0"/></g><g transform="rotate(10 374 240)"><path d="M358,240 q16,-7 32,0" stroke="#fdfbf0" stroke-width="5" fill="none" stroke-linecap="round"/><circle cx="358" cy="240" r="3.2" fill="#f2e3a0"/></g><g transform="rotate(37 464 198)"><path d="M448,198 q16,-7 32,0" stroke="#fdfbf0" stroke-width="5" fill="none" stroke-linecap="round"/><circle cx="448" cy="198" r="3.2" fill="#f2e3a0"/></g><g transform="rotate(29 372 214)"><path d="M356,214 q16,-7 32,0" stroke="#fdfbf0" stroke-width="5" fill="none" stroke-linecap="round"/><circle cx="356" cy="214" r="3.2" fill="#f2e3a0"/></g><g transform="rotate(133 363 202)"><path d="M347,202 q16,-7 32,0" stroke="#fdfbf0" stroke-width="5" fill="none" stroke-linecap="round"/><circle cx="347" cy="202" r="3.2" fill="#f2e3a0"/></g><g transform="rotate(80 381 117)"><path d="M365,117 q16,-7 32,0" stroke="#fdfbf0" stroke-width="5" fill="none" stroke-linecap="round"/><circle cx="365" cy="117" r="3.2" fill="#f2e3a0"/></g><g transform="rotate(83 405 237)"><path d="M389,237 q16,-7 32,0" stroke="#fdfbf0" stroke-width="5" fill="none" stroke-linecap="round"/><circle cx="389" cy="237" r="3.2" fill="#f2e3a0"/></g><g transform="rotate(127 403 207)"><path d="M387,207 q16,-7 32,0" stroke="#fdfbf0" stroke-width="5" fill="none" stroke-linecap="round"/><circle cx="387" cy="207" r="3.2" fill="#f2e3a0"/></g><g transform="rotate(135 491 240)"><path d="M475,240 q16,-7 32,0" stroke="#fdfbf0" stroke-width="5" fill="none" stroke-linecap="round"/><circle cx="475" cy="240" r="3.2" fill="#f2e3a0"/></g><g transform="rotate(94 446 232)"><path d="M430,232 q16,-7 32,0" stroke="#fdfbf0" stroke-width="5" fill="none" stroke-linecap="round"/><circle cx="430" cy="232" r="3.2" fill="#f2e3a0"/></g><g transform="rotate(41 383 240)"><path d="M367,240 q16,-7 32,0" stroke="#fdfbf0" stroke-width="5" fill="none" stroke-linecap="round"/><circle cx="367" cy="240" r="3.2" fill="#f2e3a0"/></g><g transform="rotate(124 316 250)"><path d="M300,250 q16,-7 32,0" stroke="#fdfbf0" stroke-width="5" fill="none" stroke-linecap="round"/><circle cx="300" cy="250" r="3.2" fill="#f2e3a0"/></g><g transform="rotate(65 363 183)"><path d="M347,183 q16,-7 32,0" stroke="#fdfbf0" stroke-width="5" fill="none" stroke-linecap="round"/><circle cx="347" cy="183" r="3.2" fill="#f2e3a0"/></g><g transform="rotate(177 411 153)"><path d="M395,153 q16,-7 32,0" stroke="#fdfbf0" stroke-width="5" fill="none" stroke-linecap="round"/><circle cx="395" cy="153" r="3.2" fill="#f2e3a0"/></g><g transform="rotate(21 521 168)"><path d="M505,168 q16,-7 32,0" stroke="#fdfbf0" stroke-width="5" fill="none" stroke-linecap="round"/><circle cx="505" cy="168" r="3.2" fill="#f2e3a0"/></g><g transform="rotate(169 285 150)"><path d="M269,150 q16,-7 32,0" stroke="#fdfbf0" stroke-width="5" fill="none" stroke-linecap="round"/><circle cx="269" cy="150" r="3.2" fill="#f2e3a0"/></g><g transform="rotate(33 360 141)"><path d="M344,141 q16,-7 32,0" stroke="#fdfbf0" stroke-width="5" fill="none" stroke-linecap="round"/><circle cx="344" cy="141" r="3.2" fill="#f2e3a0"/></g><path d="M424.4,231.9 Q425.9,237.1 423.8,241.7 Q421.8,246.4 416.3,247.2 Q410.8,248.1 406.8,245.0 Q402.8,241.8 400.9,236.3 Q399.0,230.8 405.0,228.9 Q411.0,227.0 417.0,226.8 Q422.9,226.6 424.4,231.9 Z" fill="#d9a98a" stroke="#b9876a" stroke-width="3"/><path d="M504.7,185.2 Q506.7,190.1 503.5,193.7 Q500.3,197.3 495.6,199.8 Q490.8,202.3 487.3,198.4 Q483.7,194.5 483.5,190.0 Q483.3,185.5 486.9,181.3 Q490.6,177.1 496.6,178.7 Q502.7,180.2 504.7,185.2 Z" fill="#d9a98a" stroke="#b9876a" stroke-width="3"/><path d="M386.4,239.2 Q389.0,243.2 387.4,248.3 Q385.8,253.4 380.0,253.1 Q374.3,252.9 370.0,250.4 Q365.7,248.0 366.5,243.5 Q367.3,239.1 370.4,234.6 Q373.5,230.2 378.7,232.7 Q383.9,235.1 386.4,239.2 Z" fill="#d9a98a" stroke="#b9876a" stroke-width="3"/><path d="M459.6,223.8 Q461.5,226.8 459.4,229.7 Q457.3,232.6 453.4,235.0 Q449.5,237.5 447.2,233.7 Q444.9,230.0 442.9,225.9 Q440.9,221.9 445.1,218.8 Q449.4,215.7 453.5,218.2 Q457.6,220.8 459.6,223.8 Z" fill="#d9a98a" stroke="#b9876a" stroke-width="3"/><path d="M537.4,183.7 Q538.4,187.1 537.4,190.5 Q536.3,193.9 532.3,194.7 Q528.2,195.4 522.6,194.2 Q517.0,192.9 520.0,188.4 Q523.0,184.0 525.5,181.1 Q528.1,178.2 532.3,179.2 Q536.5,180.2 537.4,183.7 Z" fill="#d9a98a" stroke="#b9876a" stroke-width="3"/><path d="M433.1,145.6 Q436.4,150.8 432.5,155.4 Q428.6,159.9 423.5,159.7 Q418.4,159.5 414.1,157.5 Q409.9,155.5 408.5,150.2 Q407.1,145.0 412.5,142.5 Q417.8,140.0 423.8,140.2 Q429.8,140.4 433.1,145.6 Z" fill="#d9a98a" stroke="#b9876a" stroke-width="3"/><path d="M405.4,143.8 Q407.2,148.7 405.3,153.5 Q403.4,158.3 397.3,160.9 Q391.2,163.5 385.9,159.2 Q380.6,154.9 380.3,148.6 Q380.0,142.3 386.2,140.4 Q392.3,138.5 398.0,138.7 Q403.6,138.9 405.4,143.8 Z" fill="#d9a98a" stroke="#b9876a" stroke-width="3"/><path d="M354.0,236.0 Q356.2,240.8 354.7,246.4 Q353.3,252.0 346.9,252.0 Q340.5,251.9 336.8,248.6 Q333.1,245.2 334.0,241.2 Q334.8,237.1 337.8,233.9 Q340.8,230.7 346.3,231.0 Q351.8,231.3 354.0,236.0 Z" fill="#d9a98a" stroke="#b9876a" stroke-width="3"/><path d="M277.9,152.1 Q281.3,156.3 276.7,159.1 Q272.1,161.8 268.3,164.3 Q264.5,166.8 260.6,163.8 Q256.8,160.8 257.7,156.7 Q258.7,152.6 262.0,151.0 Q265.4,149.4 269.9,148.7 Q274.5,148.0 277.9,152.1 Z" fill="#d9a98a" stroke="#b9876a" stroke-width="3"/><path d="M394.2,184.4 Q394.0,189.7 393.7,194.4 Q393.4,199.2 388.0,199.2 Q382.5,199.2 376.7,197.5 Q370.9,195.8 373.3,190.7 Q375.7,185.6 379.3,183.6 Q382.9,181.5 388.6,180.3 Q394.3,179.1 394.2,184.4 Z" fill="#d9a98a" stroke="#b9876a" stroke-width="3"/><path d="M467.6,183.1 Q471.0,187.9 466.3,191.2 Q461.7,194.6 457.4,196.2 Q453.2,197.9 449.5,195.0 Q445.9,192.2 446.5,188.1 Q447.1,184.1 450.0,180.7 Q453.0,177.2 458.6,177.7 Q464.2,178.3 467.6,183.1 Z" fill="#d9a98a" stroke="#b9876a" stroke-width="3"/><path d="M298.9,228.1 Q302.2,231.9 299.0,235.9 Q295.7,239.8 290.8,241.5 Q285.8,243.2 281.0,240.3 Q276.3,237.3 278.0,232.7 Q279.8,228.1 283.0,225.1 Q286.2,222.1 290.8,223.2 Q295.5,224.3 298.9,228.1 Z" fill="#d9a98a" stroke="#b9876a" stroke-width="3"/><rect x="456" y="139" width="28" height="5" rx="2" fill="#2f8a32" transform="rotate(119 470 141)"/><rect x="407" y="254" width="28" height="5" rx="2" fill="#3f9a3a" transform="rotate(153 421 257)"/><rect x="407" y="169" width="28" height="5" rx="2" fill="#2f8a32" transform="rotate(54 421 172)"/><rect x="465" y="140" width="28" height="5" rx="2" fill="#2f8a32" transform="rotate(58 479 142)"/><rect x="514" y="173" width="28" height="5" rx="2" fill="#3f9a3a" transform="rotate(101 528 175)"/><rect x="421" y="235" width="28" height="5" rx="2" fill="#2f8a32" transform="rotate(19 435 237)"/><rect x="435" y="138" width="28" height="5" rx="2" fill="#2f8a32" transform="rotate(142 449 140)"/><rect x="348" y="207" width="28" height="5" rx="2" fill="#2f8a32" transform="rotate(93 362 209)"/><rect x="526" y="167" width="28" height="5" rx="2" fill="#2f8a32" transform="rotate(73 540 170)"/><rect x="499" y="202" width="28" height="5" rx="2" fill="#3f9a3a" transform="rotate(70 513 204)"/><rect x="363" y="218" width="28" height="5" rx="2" fill="#2f8a32" transform="rotate(33 377 220)"/><rect x="382" y="136" width="28" height="5" rx="2" fill="#2f8a32" transform="rotate(59 396 139)"/><rect x="318" y="211" width="28" height="5" rx="2" fill="#3f9a3a" transform="rotate(142 332 214)"/><rect x="279" y="199" width="28" height="5" rx="2" fill="#2f8a32" transform="rotate(83 293 202)"/><rect x="292" y="166" width="20" height="4" rx="2" fill="#ef7d2d" transform="rotate(23 302 168)"/><rect x="347" y="139" width="20" height="4" rx="2" fill="#ef7d2d" transform="rotate(19 357 141)"/><rect x="256" y="212" width="20" height="4" rx="2" fill="#ef7d2d" transform="rotate(48 266 214)"/><rect x="257" y="154" width="20" height="4" rx="2" fill="#ef7d2d" transform="rotate(10 267 156)"/><rect x="397" y="188" width="20" height="4" rx="2" fill="#ef7d2d" transform="rotate(126 407 190)"/><rect x="440" y="154" width="20" height="4" rx="2" fill="#ef7d2d" transform="rotate(40 450 156)"/><rect x="280" y="215" width="20" height="4" rx="2" fill="#ef7d2d" transform="rotate(110 290 217)"/><rect x="466" y="191" width="20" height="4" rx="2" fill="#ef7d2d" transform="rotate(126 476 193)"/><circle cx="165" cy="430" r="88" fill="#ffffff" stroke="#2c4d7a" stroke-width="6"/><path d="M228.0,411.8 Q235.3,430.0 229.4,449.1 Q223.5,468.2 205.3,479.9 Q187.2,491.6 165.8,489.5 Q144.3,487.3 128.1,476.1 Q111.8,464.8 105.4,447.4 Q98.9,430.0 102.1,410.5 Q105.4,391.0 124.9,381.9 Q144.3,372.8 166.1,369.6 Q187.9,366.5 204.3,380.1 Q220.7,393.6 228.0,411.8 Z" fill="#fdfcf7"/><ellipse cx="165" cy="430" rx="5" ry="3" fill="#ffffff" stroke="#e6e2d4" stroke-width="0.8" transform="rotate(98 165 430)"/><ellipse cx="164" cy="430" rx="5" ry="3" fill="#ffffff" stroke="#e6e2d4" stroke-width="0.8" transform="rotate(14 164 430)"/><ellipse cx="119" cy="462" rx="5" ry="3" fill="#ffffff" stroke="#e6e2d4" stroke-width="0.8" transform="rotate(112 119 462)"/><ellipse cx="206" cy="389" rx="5" ry="3" fill="#ffffff" stroke="#e6e2d4" stroke-width="0.8" transform="rotate(140 206 389)"/><ellipse cx="126" cy="474" rx="5" ry="3" fill="#ffffff" stroke="#e6e2d4" stroke-width="0.8" transform="rotate(165 126 474)"/><ellipse cx="147" cy="388" rx="5" ry="3" fill="#ffffff" stroke="#e6e2d4" stroke-width="0.8" transform="rotate(12 147 388)"/><ellipse cx="165" cy="427" rx="5" ry="3" fill="#ffffff" stroke="#e6e2d4" stroke-width="0.8" transform="rotate(3 165 427)"/><ellipse cx="215" cy="427" rx="5" ry="3" fill="#ffffff" stroke="#e6e2d4" stroke-width="0.8" transform="rotate(114 215 427)"/><ellipse cx="158" cy="476" rx="5" ry="3" fill="#ffffff" stroke="#e6e2d4" stroke-width="0.8" transform="rotate(2 158 476)"/><ellipse cx="180" cy="388" rx="5" ry="3" fill="#ffffff" stroke="#e6e2d4" stroke-width="0.8" transform="rotate(179 180 388)"/><ellipse cx="188" cy="403" rx="5" ry="3" fill="#ffffff" stroke="#e6e2d4" stroke-width="0.8" transform="rotate(127 188 403)"/><ellipse cx="189" cy="417" rx="5" ry="3" fill="#ffffff" stroke="#e6e2d4" stroke-width="0.8" transform="rotate(35 189 417)"/><ellipse cx="154" cy="394" rx="5" ry="3" fill="#ffffff" stroke="#e6e2d4" stroke-width="0.8" transform="rotate(3 154 394)"/><ellipse cx="122" cy="436" rx="5" ry="3" fill="#ffffff" stroke="#e6e2d4" stroke-width="0.8" transform="rotate(127 122 436)"/><ellipse cx="206" cy="403" rx="5" ry="3" fill="#ffffff" stroke="#e6e2d4" stroke-width="0.8" transform="rotate(23 206 403)"/><ellipse cx="165" cy="432" rx="5" ry="3" fill="#ffffff" stroke="#e6e2d4" stroke-width="0.8" transform="rotate(43 165 432)"/><ellipse cx="160" cy="424" rx="5" ry="3" fill="#ffffff" stroke="#e6e2d4" stroke-width="0.8" transform="rotate(132 160 424)"/><ellipse cx="181" cy="432" rx="5" ry="3" fill="#ffffff" stroke="#e6e2d4" stroke-width="0.8" transform="rotate(67 181 432)"/><ellipse cx="131" cy="433" rx="5" ry="3" fill="#ffffff" stroke="#e6e2d4" stroke-width="0.8" transform="rotate(130 131 433)"/><ellipse cx="165" cy="441" rx="5" ry="3" fill="#ffffff" stroke="#e6e2d4" stroke-width="0.8" transform="rotate(178 165 441)"/><ellipse cx="129" cy="466" rx="5" ry="3" fill="#ffffff" stroke="#e6e2d4" stroke-width="0.8" transform="rotate(3 129 466)"/><ellipse cx="181" cy="383" rx="5" ry="3" fill="#ffffff" stroke="#e6e2d4" stroke-width="0.8" transform="rotate(81 181 383)"/><ellipse cx="124" cy="443" rx="5" ry="3" fill="#ffffff" stroke="#e6e2d4" stroke-width="0.8" transform="rotate(176 124 443)"/><ellipse cx="134" cy="435" rx="5" ry="3" fill="#ffffff" stroke="#e6e2d4" stroke-width="0.8" transform="rotate(177 134 435)"/><ellipse cx="118" cy="416" rx="5" ry="3" fill="#ffffff" stroke="#e6e2d4" stroke-width="0.8" transform="rotate(1 118 416)"/><ellipse cx="149" cy="443" rx="5" ry="3" fill="#ffffff" stroke="#e6e2d4" stroke-width="0.8" transform="rotate(61 149 443)"/><ellipse cx="164" cy="431" rx="5" ry="3" fill="#ffffff" stroke="#e6e2d4" stroke-width="0.8" transform="rotate(58 164 431)"/><ellipse cx="214" cy="439" rx="5" ry="3" fill="#ffffff" stroke="#e6e2d4" stroke-width="0.8" transform="rotate(101 214 439)"/><ellipse cx="103" cy="428" rx="5" ry="3" fill="#ffffff" stroke="#e6e2d4" stroke-width="0.8" transform="rotate(147 103 428)"/><ellipse cx="164" cy="428" rx="5" ry="3" fill="#ffffff" stroke="#e6e2d4" stroke-width="0.8" transform="rotate(19 164 428)"/><ellipse cx="172" cy="453" rx="5" ry="3" fill="#ffffff" stroke="#e6e2d4" stroke-width="0.8" transform="rotate(1 172 453)"/><ellipse cx="195" cy="441" rx="5" ry="3" fill="#ffffff" stroke="#e6e2d4" stroke-width="0.8" transform="rotate(138 195 441)"/><ellipse cx="176" cy="433" rx="5" ry="3" fill="#ffffff" stroke="#e6e2d4" stroke-width="0.8" transform="rotate(49 176 433)"/><ellipse cx="175" cy="410" rx="5" ry="3" fill="#ffffff" stroke="#e6e2d4" stroke-width="0.8" transform="rotate(156 175 410)"/><ellipse cx="198" cy="430" rx="5" ry="3" fill="#ffffff" stroke="#e6e2d4" stroke-width="0.8" transform="rotate(141 198 430)"/><ellipse cx="153" cy="451" rx="5" ry="3" fill="#ffffff" stroke="#e6e2d4" stroke-width="0.8" transform="rotate(156 153 451)"/><ellipse cx="161" cy="421" rx="5" ry="3" fill="#ffffff" stroke="#e6e2d4" stroke-width="0.8" transform="rotate(60 161 421)"/><ellipse cx="187" cy="399" rx="5" ry="3" fill="#ffffff" stroke="#e6e2d4" stroke-width="0.8" transform="rotate(7 187 399)"/><ellipse cx="155" cy="456" rx="5" ry="3" fill="#ffffff" stroke="#e6e2d4" stroke-width="0.8" transform="rotate(60 155 456)"/><ellipse cx="195" cy="425" rx="5" ry="3" fill="#ffffff" stroke="#e6e2d4" stroke-width="0.8" transform="rotate(94 195 425)"/><ellipse cx="174" cy="412" rx="5" ry="3" fill="#ffffff" stroke="#e6e2d4" stroke-width="0.8" transform="rotate(107 174 412)"/><ellipse cx="163" cy="414" rx="5" ry="3" fill="#ffffff" stroke="#e6e2d4" stroke-width="0.8" transform="rotate(106 163 414)"/><ellipse cx="128" cy="435" rx="5" ry="3" fill="#ffffff" stroke="#e6e2d4" stroke-width="0.8" transform="rotate(158 128 435)"/><ellipse cx="184" cy="469" rx="5" ry="3" fill="#ffffff" stroke="#e6e2d4" stroke-width="0.8" transform="rotate(70 184 469)"/><ellipse cx="173" cy="420" rx="5" ry="3" fill="#ffffff" stroke="#e6e2d4" stroke-width="0.8" transform="rotate(95 173 420)"/><ellipse cx="203" cy="390" rx="5" ry="3" fill="#ffffff" stroke="#e6e2d4" stroke-width="0.8" transform="rotate(90 203 390)"/><ellipse cx="148" cy="381" rx="5" ry="3" fill="#ffffff" stroke="#e6e2d4" stroke-width="0.8" transform="rotate(23 148 381)"/><ellipse cx="178" cy="435" rx="5" ry="3" fill="#ffffff" stroke="#e6e2d4" stroke-width="0.8" transform="rotate(109 178 435)"/><ellipse cx="174" cy="456" rx="5" ry="3" fill="#ffffff" stroke="#e6e2d4" stroke-width="0.8" transform="rotate(13 174 456)"/><ellipse cx="133" cy="436" rx="5" ry="3" fill="#ffffff" stroke="#e6e2d4" stroke-width="0.8" transform="rotate(39 133 436)"/><ellipse cx="217" cy="421" rx="5" ry="3" fill="#ffffff" stroke="#e6e2d4" stroke-width="0.8" transform="rotate(103 217 421)"/><ellipse cx="212" cy="468" rx="5" ry="3" fill="#ffffff" stroke="#e6e2d4" stroke-width="0.8" transform="rotate(17 212 468)"/><ellipse cx="174" cy="435" rx="5" ry="3" fill="#ffffff" stroke="#e6e2d4" stroke-width="0.8" transform="rotate(152 174 435)"/><ellipse cx="187" cy="417" rx="5" ry="3" fill="#ffffff" stroke="#e6e2d4" stroke-width="0.8" transform="rotate(166 187 417)"/><ellipse cx="132" cy="409" rx="5" ry="3" fill="#ffffff" stroke="#e6e2d4" stroke-width="0.8" transform="rotate(3 132 409)"/><ellipse cx="164" cy="431" rx="5" ry="3" fill="#ffffff" stroke="#e6e2d4" stroke-width="0.8" transform="rotate(133 164 431)"/><ellipse cx="125" cy="445" rx="5" ry="3" fill="#ffffff" stroke="#e6e2d4" stroke-width="0.8" transform="rotate(89 125 445)"/><ellipse cx="165" cy="430" rx="5" ry="3" fill="#ffffff" stroke="#e6e2d4" stroke-width="0.8" transform="rotate(172 165 430)"/><ellipse cx="199" cy="419" rx="5" ry="3" fill="#ffffff" stroke="#e6e2d4" stroke-width="0.8" transform="rotate(172 199 419)"/><ellipse cx="122" cy="438" rx="5" ry="3" fill="#ffffff" stroke="#e6e2d4" stroke-width="0.8" transform="rotate(30 122 438)"/><ellipse cx="162" cy="430" rx="5" ry="3" fill="#ffffff" stroke="#e6e2d4" stroke-width="0.8" transform="rotate(99 162 430)"/><ellipse cx="161" cy="431" rx="5" ry="3" fill="#ffffff" stroke="#e6e2d4" stroke-width="0.8" transform="rotate(136 161 431)"/><ellipse cx="116" cy="462" rx="5" ry="3" fill="#ffffff" stroke="#e6e2d4" stroke-width="0.8" transform="rotate(94 116 462)"/><ellipse cx="130" cy="473" rx="5" ry="3" fill="#ffffff" stroke="#e6e2d4" stroke-width="0.8" transform="rotate(80 130 473)"/><ellipse cx="177" cy="434" rx="5" ry="3" fill="#ffffff" stroke="#e6e2d4" stroke-width="0.8" transform="rotate(145 177 434)"/><ellipse cx="173" cy="465" rx="5" ry="3" fill="#ffffff" stroke="#e6e2d4" stroke-width="0.8" transform="rotate(167 173 465)"/><ellipse cx="162" cy="490" rx="5" ry="3" fill="#ffffff" stroke="#e6e2d4" stroke-width="0.8" transform="rotate(134 162 490)"/><ellipse cx="186" cy="444" rx="5" ry="3" fill="#ffffff" stroke="#e6e2d4" stroke-width="0.8" transform="rotate(101 186 444)"/><ellipse cx="163" cy="423" rx="5" ry="3" fill="#ffffff" stroke="#e6e2d4" stroke-width="0.8" transform="rotate(50 163 423)"/><ellipse cx="145" cy="482" rx="5" ry="3" fill="#ffffff" stroke="#e6e2d4" stroke-width="0.8" transform="rotate(10 145 482)"/><circle cx="395" cy="435" r="82" fill="#1b1b1b"/><circle cx="395" cy="435" r="72" fill="#8e1f1f"/><circle cx="395" cy="435" r="66" fill="#c08a4a"/><path d="M416.0,441.4 Q417.7,445.3 417.2,450.5 Q416.6,455.7 409.9,458.8 Q403.2,461.8 396.8,457.3 Q390.3,452.7 388.8,444.7 Q387.3,436.6 395.6,433.9 Q403.8,431.2 409.1,434.4 Q414.3,437.5 416.0,441.4 Z" fill="#d4a564"/><path d="M418.8,444.5 Q420.7,447.9 421.8,454.8 Q423.0,461.7 414.6,463.9 Q406.2,466.1 399.5,460.9 Q392.8,455.7 396.0,449.3 Q399.1,442.9 403.6,439.9 Q408.0,437.0 412.5,439.0 Q416.9,441.1 418.8,444.5 Z" fill="#d4a564"/><path d="M403.3,442.0 Q403.3,447.6 403.1,453.0 Q402.9,458.3 397.0,457.7 Q391.0,457.1 385.2,455.4 Q379.3,453.7 381.6,448.6 Q383.9,443.5 386.8,438.4 Q389.8,433.3 396.6,434.9 Q403.4,436.4 403.3,442.0 Z" fill="#d4a564"/><path d="M382.1,415.2 Q385.6,421.2 380.4,425.3 Q375.2,429.4 369.9,431.9 Q364.6,434.4 359.9,430.6 Q355.1,426.8 356.1,421.6 Q357.1,416.5 360.4,410.5 Q363.7,404.5 371.2,406.8 Q378.7,409.1 382.1,415.2 Z" fill="#d4a564"/><path d="M436.3,452.9 Q436.1,459.7 436.7,467.1 Q437.3,474.4 428.7,475.6 Q420.0,476.9 415.2,471.3 Q410.4,465.8 410.6,459.8 Q410.8,453.9 416.4,452.4 Q422.1,451.0 429.3,448.5 Q436.5,446.0 436.3,452.9 Z" fill="#d4a564"/><path d="M395.1,461.6 Q395.6,468.8 395.1,476.0 Q394.6,483.2 385.8,485.4 Q377.0,487.7 374.1,480.5 Q371.2,473.4 370.8,468.7 Q370.4,463.9 373.8,457.3 Q377.2,450.6 385.9,452.5 Q394.6,454.4 395.1,461.6 Z" fill="#d4a564"/><rect x="360" y="393" width="18" height="18" rx="3" fill="#fbf6e8"/><rect x="370" y="403" width="18" height="18" rx="3" fill="#fbf6e8"/><rect x="357" y="402" width="18" height="18" rx="3" fill="#fbf6e8"/><rect x="377" y="437" width="18" height="18" rx="3" fill="#fbf6e8"/><rect x="385" y="412" width="18" height="18" rx="3" fill="#fbf6e8"/><path d="M382.7,427.4 Q386.0,430.2 383.2,433.5 Q380.3,436.9 375.8,439.7 Q371.3,442.6 367.0,438.9 Q362.8,435.2 365.5,431.3 Q368.1,427.4 370.3,424.8 Q372.4,422.2 375.9,423.4 Q379.3,424.6 382.7,427.4 Z" fill="#2f5a2a"/><path d="M419.6,418.5 Q424.1,421.4 421.2,426.1 Q418.2,430.8 413.0,430.1 Q407.8,429.3 402.8,428.0 Q397.7,426.6 396.9,421.0 Q396.1,415.4 401.5,412.4 Q406.8,409.4 410.9,412.5 Q415.0,415.6 419.6,418.5 Z" fill="#2f5a2a"/><path d="M374.1,434.5 Q375.8,439.5 372.3,442.2 Q368.7,445.0 365.2,446.3 Q361.7,447.6 358.8,445.3 Q355.8,442.9 356.1,439.6 Q356.4,436.3 358.9,433.1 Q361.4,429.9 366.9,429.7 Q372.5,429.6 374.1,434.5 Z" fill="#2f5a2a"/><path d="M413.7,462.0 Q413.6,467.2 413.4,472.1 Q413.2,476.9 408.1,475.1 Q403.0,473.4 396.9,473.3 Q390.8,473.2 393.8,468.5 Q396.7,463.8 399.1,459.5 Q401.5,455.2 407.7,455.9 Q413.9,456.7 413.7,462.0 Z" fill="#2f5a2a"/><path d="M411.1,461.8 Q414.2,465.7 411.5,470.0 Q408.7,474.4 403.8,474.5 Q398.8,474.6 395.2,472.2 Q391.6,469.8 391.5,465.7 Q391.4,461.5 394.8,457.8 Q398.1,454.1 403.0,456.0 Q408.0,457.9 411.1,461.8 Z" fill="#2f5a2a"/><rect x="560" y="470" width="120" height="58" rx="12" fill="#efe9dc" stroke="#c9bfa8" stroke-width="2"/><ellipse cx="590" cy="499" rx="16" ry="14" fill="#f5d33c" stroke="#e0b81e" stroke-width="2"/><ellipse cx="606" cy="499" rx="16" ry="14" fill="#f5d33c" stroke="#e0b81e" stroke-width="2"/><ellipse cx="622" cy="499" rx="16" ry="14" fill="#f5d33c" stroke="#e0b81e" stroke-width="2"/><rect x="250" y="530" width="300" height="10" rx="5" fill="#8a5a36"/><rect x="250" y="544" width="300" height="10" rx="5" fill="#9c6a42"/></svg>