<svg xmlns="http://www.w3.org/2000/svg" viewBox="0 0 800 600" width="800" height="600"><defs><radialGradient id="shadow"><stop offset="0.7" stop-color="#000" stop-opacity="0.25"/><stop offset="1" stop-color="#000" stop-opacity="0"/></radialGradient></defs><rect width="800" height="600" fill="#ffffff"/><rect x="0" y="0" width="36" height="600" fill="#5d7a4a" opacity="0.5"/><rect x="72" y="0" width="36" height="600" fill="#5d7a4a" opacity="0.5"/><rect x="144" y="0" width="36" height="600" fill="#5d7a4a" opacity="0.5"/><rect x="216" y="0" width="36" height="600" fill="#5d7a4a" opacity="0.5"/><rect x="288" y="0" width="36" height="600" fill="#5d7a4a" opacity="0.5"/><rect x="360" y="0" width="36" height="600" fill="#5d7a4a" opacity="0.5"/><rect x="432" y="0" width="36" height="600" fill="#5d7a4a" opacity="0.5"/><rect x="504" y="0" width="36" height="600" fill="#5d7a4a" opacity="0.5"/><rect x="576" y="0" width="36" height="600" fill="#5d7a4a" opacity="0.5"/><rect x="648" y="0" width="36" height="600" fill="#5d7a4a" opacity="0.5"/><rect x="720" y="0" width="36" height="600" fill="#5d7a4a" opacity="0.5"/><rect x="792" y="0" width="36" height="600" fill="#5d7a4a" opacity="0.5"/><rect x="0" y="0" width="800" height="36" fill="#5d7a4a" opacity="0.5"/><rect x="0" y="72" width="800" height="36" fill="#5d7a4a" opacity="0.5"/><rect x="0" y="144" width="800" height="36" fill="#5d7a4a" opacity="0.5"/><rect x="0" y="216" width="800" height="36" fill="#5d7a4a" opacity="0.5"/><rect x="0" y="288" width="800" height="36" fill="#5d7a4a" opacity="0.5"/><rect x="0" y="360" width="800" height="36" fill="#5d7a4a" opacity="0.5"/><rect x="0" y="432" width="800" height="36" fill="#5d7a4a" opacity="0.5"/><rect x="0" y="504" width="800" height="36" fill="#5d7a4a" opacity="0.5"/><rect x="0" y="576" width="800" height="36" fill="#5d7a4a" opacity="0.5"/><ellipse cx="414" cy="332" rx="290" ry="215" fill="url(#shadow)"/><ellipse cx="400" cy="310" rx="275" ry="200" fill="#ffffff" stroke="#e3e3e3" stroke-width="3"/><ellipse cx="400" cy="310" rx="245" ry="175" fill="none" stroke="#e9eef2" stroke-width="3"/><path d="M210,315 Q400,170 590,315 Q400,430 210,315 Z" fill="#e8b02a"/><path d="M220,310 Q400,182 580,310 Q400,415 220,310 Z" fill="#f6cf45"/><path d="M280,270 Q400,215 520,270" stroke="#fbe38e" stroke-width="10" fill="none" stroke-linecap="round" opacity="0.8"/><path d="M270,340 a10,8 0 0,1 20,0 z" fill="#9a7650"/><rect x="277" y="340" width="6" height="10" rx="2" fill="#efe2c8"/><path d="M300,345 a10,8 0 0,1 20,0 z" fill="#9a7650"/><rect x="307" y="345" width="6" height="10" rx="2" fill="#efe2c8"/><path d="M330,345 a10,8 0 0,1 20,0 z" fill="#9a7650"/><rect x="337" y="345" width="6" height="10" rx="2" fill="#efe2c8"/><path d="M360,341 a10,8 0 0,1 20,0 z" fill="#9a7650"/><rect x="367" y="341" width="6" height="10" rx="2" fill="#efe2c8"/><path d="M390,335 a10,8 0 0,1 20,0 z" fill="#9a7650"/><rect x="397" y="335" width="6" height="10" rx="2" fill="#efe2c8"/><path d="M420,334 a10,8 0 0,1 20,0 z" fill="#9a7650"/><rect x="427" y="334" width="6" height="10" rx="2" fill="#efe2c8"/><path d="M450,338 a10,8 0 0,1 20,0 z" fill="#9a7650"/><rect x="457" y="338" width="6" height="10" rx="2" fill="#efe2c8"/><path d="M480,344 a10,8 0 0,1 20,0 z" fill="#9a7650"/><rect x="487" y="344" width="6" height="10" rx="2" fill="#efe2c8"/><path d="M510,346 a10,8 0 0,1 20,0 z" fill="#9a7650"/><rect x="517" y="346" width="6" height="10" rx="2" fill="#efe2c8"/><path d="M305,264 a12,9 0 0,1 24,0 z" fill="#8a6640" stroke="#6b4a2c" stroke-width="1.5"/><rect x="314" y="264" width="6" height="12" rx="2" fill="#efe2c8"/><path d="M324,257 a12,9 0 0,1 24,0 z" fill="#8a6640" stroke="#6b4a2c" stroke-width="1.5"/><rect x="333" y="257" width="6" height="12" rx="2" fill="#efe2c8"/><path d="M419,267 a12,9 0 0,1 24,0 z" fill="#8a6640" stroke="#6b4a2c" stroke-width="1.5"/><rect x="428" y="267" width="6" height="12" rx="2" fill="#efe2c8"/><path d="M380,258 a12,9 0 0,1 24,0 z" fill="#8a6640" stroke="#6b4a2c" stroke-width="1.5"/><rect x="389" y="258" width="6" height="12" rx="2" fill="#efe2c8"/><path d="M301,256 a12,9 0 0,1 24,0 z" fill="#8a6640" stroke="#6b4a2c" stroke-width="1.5"/><rect x="310" y="256" width="6" height="12" rx="2" fill="#efe2c8"/><path d="M365,269 a12,9 0 0,1 24,0 z" fill="#8a6640" stroke="#6b4a2c" stroke-width="1.5"/><rect x="374" y="269" width="6" height="12" rx="2" fill="#efe2c8"/><path d="M396,266 a12,9 0 0,1 24,0 z" fill="#8a6640" stroke="#6b4a2c" stroke-width="1.5"/><rect x="405" y="266" width="6" height="12" rx="2" fill="#efe2c8"/><path d="M376,248 a12,9 0 0,1 24,0 z" fill="#8a6640" stroke="#6b4a2c" stroke-width="1.5"/><rect x="385" y="248" width="6" height="12" rx="2" fill="#efe2c8"/><path d="M451,268 a12,9 0 0,1 24,0 z" fill="#8a6640" stroke="#6b4a2c" stroke-width="1.5"/><rect x="460" y="268" width="6" height="12" rx="2" fill="#efe2c8"/><circle cx="378" cy="249" r="4" fill="#b5e08a" stroke="#4f9a3a" stroke-width="1.5"/><circle cx="402" cy="265" r="4" fill="#b5e08a" stroke="#4f9a3a" stroke-width="1.5"/><circle cx="449" cy="269" r="4" fill="#b5e08a" stroke="#4f9a3a" stroke-width="1.5"/><circle cx="401" cy="268" r="4" fill="#b5e08a" stroke="#4f9a3a" stroke-width="1.5"/><circle cx="378" cy="247" r="4" fill="#b5e08a" stroke="#4f9a3a" stroke-width="1.5"/><circle cx="321" cy="283" r="4" fill="#b5e08a" stroke="#4f9a3a" stroke-width="1.5"/><circle cx="461" cy="257" r="4" fill="#b5e08a" stroke="#4f9a3a" stroke-width="1.5"/><circle cx="470" cy="266" r="4" fill="#b5e08a" stroke="#4f9a3a" stroke-width="1.5"/><circle cx="329" cy="279" r="4" fill="#b5e08a" stroke="#4f9a3a" stroke-width="1.5"/><circle cx="415" cy="282" r="4" fill="#b5e08a" stroke="#4f9a3a" stroke-width="1.5"/><circle cx="432" cy="249" r="4" fill="#b5e08a" stroke="#4f9a3a" stroke-width="1.5"/><circle cx="422" cy="276" r="4" fill="#b5e08a" stroke="#4f9a3a" stroke-width="1.5"/><circle cx="472" cy="258" r="4" fill="#b5e08a" stroke="#4f9a3a" stroke-width="1.5"/><circle cx="405" cy="273" r="4" fill="#b5e08a" stroke="#4f9a3a" stroke-width="1.5"/><rect x="388" y="230" width="26" height="18" rx="3" fill="#ffe9a0" transform="rotate(12 400 240)"/><rect x="80" y="160" width="12" height="300" rx="5" fill="#c2c6ca" transform="rotate(-6 86 310)"/><rect x="712" y="160" width="14" height="300" rx="6" fill="#c2c6ca" transform="rotate(6 719 310)"/></svg>