<svg xmlns="http://www.w3.org/2000/svg" viewBox="0 0 800 600" width="800" height="600"><defs><radialGradient id="shadow"><stop offset="0.7" stop-color="#000" stop-opacity="0.25"/><stop offset="1" stop-color="#000" stop-opacity="0"/></radialGradient></defs><rect width="800" height="600" fill="#ffffff"/><rect x="0" y="0" width="36" height="600" fill="#e09b3d" opacity="0.5"/><rect x="72" y="0" width="36" height="600" fill="#e09b3d" opacity="0.5"/><rect x="144" y="0" width="36" height="600" fill="#e09b3d" opacity="0.5"/><rect x="216" y="0" width="36" height="600" fill="#e09b3d" opacity="0.5"/><rect x="288" y="0" width="36" height="600" fill="#e09b3d" opacity="0.5"/><rect x="360" y="0" width="36" height="600" fill="#e09b3d" opacity="0.5"/><rect x="432" y="0" width="36" height="600" fill="#e09b3d" opacity="0.5"/><rect x="504" y="0" width="36" height="600" fill="#e09b3d" opacity="0.5"/><rect x="576" y="0" width="36" height="600" fill="#e09b3d" opacity="0.5"/><rect x="648" y="0" width="36" height="600" fill="#e09b3d" opacity="0.5"/><rect x="720" y="0" width="36" height="600" fill="#e09b3d" opacity="0.5"/><rect x="792" y="0" width="36" height="600" fill="#e09b3d" opacity="0.5"/><rect x="0" y="0" width="800" height="36" fill="#e09b3d" opacity="0.5"/><rect x="0" y="72" width="800" height="36" fill="#e09b3d" opacity="0.5"/><rect x="0" y="144" width="800" height="36" fill="#e09b3d" opacity="0.5"/><rect x="0" y="216" width="800" height="36" fill="#e09b3d" opacity="0.5"/><rect x="0" y="288" width="800" height="36" fill="#e09b3d" opacity="0.5"/><rect x="0" y="360" width="800" height="36" fill="#e09b3d" opacity="0.5"/><rect x="0" y="432" width="800" height="36" fill="#e09b3d" opacity="0.5"/><rect x="0" y="504" width="800" height="36" fill="#e09b3d" opacity="0.5"/><rect x="0" y="576" width="800" height="36" fill="#e09b3d" opacity="0.5"/><ellipse cx="414" cy="332" rx="290" ry="215" fill="url(#shadow)"/><ellipse cx="400" cy="310" rx="275" ry="200" fill="#ffffff" stroke="#e3e3e3" stroke-width="3"/><ellipse cx="400" cy="310" rx="245" ry="175" fill="none" stroke="#e9eef2" stroke-width="3"/><path d="M210,315 Q400,170 590,315 Q400,430 210,315 Z" fill="#e8b02a"/><path d="M220,310 Q400,182 580,310 Q400,415 220,310 Z" fill="#f6cf45"/><path d="M280,270 Q400,215 520,270" stroke="#fbe38e" stroke-width="10" fill="none" stroke-linecap="round" opacity="0.8"/><rect x="266" y="336" width="28" height="8" rx="3" fill="#f2c45a" stroke="#c98f2a" stroke-width="1.5" transform="rotate(-3 280 340)"/><rect x="296" y="341" width="28" height="8" rx="3" fill="#f2c45a" stroke="#c98f2a" stroke-width="1.5" transform="rotate(-37 310 345)"/><rect x="304" y="347" width="12" height="6" rx="2" fill="#c4544a"/><rect x="326" y="341" width="28" height="8" rx="3" fill="#f2c45a" stroke="#c98f2a" stroke-width="1.5" transform="rotate(37 340 345)"/><rect x="356" y="337" width="28" height="8" rx="3" fill="#f2c45a" stroke="#c98f2a" stroke-width="1.5" transform="rotate(-30 370 341)"/><rect x="364" y="343" width="12" height="6" rx="2" fill="#c4544a"/><rect x="386" y="331" width="28" height="8" rx="3" fill="#f2c45a" stroke="#c98f2a" stroke-width="1.5" transform="rotate(30 400 335)"/><rect x="416" y="330" width="28" height="8" rx="3" fill="#f2c45a" stroke="#c98f2a" stroke-width="1.5" transform="rotate(-38 430 334)"/><rect x="446" y="334" width="28" height="8" rx="3" fill="#f2c45a" stroke="#c98f2a" stroke-width="1.5" transform="rotate(-30 460 338)"/><rect x="476" y="340" width="28" height="8" rx="3" fill="#f2c45a" stroke="#c98f2a" stroke-width="1.5" transform="rotate(10 490 344)"/><rect x="506" y="342" width="28" height="8" rx="3" fill="#f2c45a" stroke="#c98f2a" stroke-width="1.5" transform="rotate(37 520 346)"/><rect x="514" y="348" width="12" height="6" rx="2" fill="#c4544a"/><polyline points="270,266 296,294 322,266 348,294 374,266 400,294 426,266 452,294 478,266 504,294 530,266" stroke="#c62828" stroke-width="9" fill="none" stroke-linecap="round" stroke-linejoin="round"/><circle cx="413" cy="247" r="3" fill="#3f8f3a"/><circle cx="456" cy="248" r="3" fill="#3f8f3a"/><circle cx="402" cy="262" r="3" fill="#3f8f3a"/><circle cx="446" cy="247" r="3" fill="#3f8f3a"/><circle cx="445" cy="262" r="3" fill="#3f8f3a"/><circle cx="378" cy="260" r="3" fill="#3f8f3a"/><circle cx="367" cy="248" r="3" fill="#3f8f3a"/><circle cx="360" cy="251" r="3" fill="#3f8f3a"/><rect x="80" y="160" width="12" height="300" rx="5" fill="#c2c6ca" transform="rotate(-6 86 310)"/><rect x="712" y="160" width="14" height="300" rx="6" fill="#c2c6ca" transform="rotate(6 719 310)"/></svg>