<svg xmlns="http://www.w3.org/2000/svg" viewBox="0 0 800 600" width="800" height="600"><defs><radialGradient id="shadow"><stop offset="0.7" stop-color="#000" stop-opacity="0.25"/><stop offset="1" stop-color="#000" stop-opacity="0"/></radialGradient></defs><rect width="800" height="600" fill="#cfa978"/><rect x="0" y="0" width="800" height="2" fill="#a9824f" opacity="0.5"/><path d="M0,30 C200,22 400,38 800,28" stroke="#a9824f" stroke-width="1.2" fill="none" opacity="0.35"/><rect x="0" y="60" width="800" height="2" fill="#a9824f" opacity="0.5"/><path d="M0,90 C200,82 400,98 800,88" stroke="#a9824f" stroke-width="1.2" fill="none" opacity="0.35"/><rect x="0" y="120" width="800" height="2" fill="#a9824f" opacity="0.5"/><path d="M0,150 C200,142 400,158 800,148" stroke="#a9824f" stroke-width="1.2" fill="none" opacity="0.35"/><rect x="0" y="180" width="800" height="2" fill="#a9824f" opacity="0.5"/><path d="M0,210 C200,202 400,218 800,208" stroke="#a9824f" stroke-width="1.2" fill="none" opacity="0.35"/><rect x="0" y="240" width="800" height="2" fill="#a9824f" opacity="0.5"/><path d="M0,270 C200,262 400,278 800,268" stroke="#a9824f" stroke-width="1.2" fill="none" opacity="0.35"/><rect x="0" y="300" width="800" height="2" fill="#a9824f" opacity="0.5"/><path d="M0,330 C200,322 400,338 800,328" stroke="#a9824f" stroke-width="1.2" fill="none" opacity="0.35"/><rect x="0" y="360" width="800" height="2" fill="#a9824f" opacity="0.5"/><path d="M0,390 C200,382 400,398 800,388" stroke="#a9824f" stroke-width="1.2" fill="none" opacity="0.35"/><rect x="0" y="420" width="800" height="2" fill="#a9824f" opacity="0.5"/><path d="M0,450 C200,442 400,458 800,448" stroke="#a9824f" stroke-width="1.2" fill="none" opacity="0.35"/><rect x="0" y="480" width="800" height="2" fill="#a9824f" opacity="0.5"/><path d="M0,510 C200,502 400,518 800,508" stroke="#a9824f" stroke-width="1.2" fill="none" opacity="0.35"/><rect x="0" y="540" width="800" height="2" fill="#a9824f" opacity="0.5"/><path d="M0,570 C200,562 400,578 800,568" stroke="#a9824f" stroke-width="1.2" fill="none" opacity="0.35"/><rect x="38" y="38" width="724" height="524" rx="22" fill="#000" opacity="0.18"/><rect x="30" y="30" width="724" height="524" rx="22" fill="#5a2a1a"/><rect x="44" y="44" width="696" height="496" rx="16" fill="#6e3420"/><ellipse cx="400" cy="190" rx="260" ry="118" fill="#ffffff" stroke="#e3e0da" stroke-width="3"/><g transform="rotate(-22 225 145)"><path d="M163,145 Q205,127 261,139 L283,131 L279,145 L283,159 L261,151 Q205,167 163,145 Z" fill="#c9a26a" stroke="#8a6a3a" stroke-width="2"/><path d="M167,142 Q205,131 259,141" stroke="#7d8790" stroke-width="5" fill="none" stroke-linecap="round"/><path d="M185,151 Q215,161 245,151" stroke="#f2c46a" stroke-width="6" fill="none" stroke-linecap="round"/><circle cx="175" cy="142" r="4" fill="#2b2b2b"/><circle cx="174" cy="141" r="1.3" fill="#ffffff"/><rect x="195" y="136" width="9" height="5" rx="2" fill="#4a3020" opacity="0.65"/><rect x="215" y="136" width="9" height="5" rx="2" fill="#4a3020" opacity="0.65"/><rect x="235" y="136" width="9" height="5" rx="2" fill="#4a3020" opacity="0.65"/></g><g transform="rotate(-22 277 165)"><path d="M215,165 Q257,147 313,159 L335,151 L331,165 L335,179 L313,171 Q257,187 215,165 Z" fill="#c9a26a" stroke="#8a6a3a" stroke-width="2"/><path d="M219,162 Q257,151 311,161" stroke="#7d8790" stroke-width="5" fill="none" stroke-linecap="round"/><path d="M237,171 Q267,181 297,171" stroke="#f2c46a" stroke-width="6" fill="none" stroke-linecap="round"/><circle cx="227" cy="162" r="4" fill="#2b2b2b"/><circle cx="226" cy="161" r="1.3" fill="#ffffff"/><rect x="247" y="156" width="9" height="5" rx="2" fill="#4a3020" opacity="0.65"/><rect x="267" y="156" width="9" height="5" rx="2" fill="#4a3020" opacity="0.65"/><rect x="287" y="156" width="9" height="5" rx="2" fill="#4a3020" opacity="0.65"/></g><g transform="rotate(-22 329 185)"><path d="M267,185 Q309,167 365,179 L387,171 L383,185 L387,199 L365,191 Q309,207 267,185 Z" fill="#c9a26a" stroke="#8a6a3a" stroke-width="2"/><path d="M271,182 Q309,171 363,181" stroke="#7d8790" stroke-width="5" fill="none" stroke-linecap="round"/><path d="M289,191 Q319,201 349,191" stroke="#f2c46a" stroke-width="6" fill="none" stroke-linecap="round"/><circle cx="279" cy="182" r="4" fill="#2b2b2b"/><circle cx="278" cy="181" r="1.3" fill="#ffffff"/><rect x="299" y="176" width="9" height="5" rx="2" fill="#4a3020" opacity="0.65"/><rect x="319" y="176" width="9" height="5" rx="2" fill="#4a3020" opacity="0.65"/><rect x="339" y="176" width="9" height="5" rx="2" fill="#4a3020" opacity="0.65"/></g><g transform="rotate(-22 381 205)"><path d="M319,205 Q361,187 417,199 L439,191 L435,205 L439,219 L417,211 Q361,227 319,205 Z" fill="#c9a26a" stroke="#8a6a3a" stroke-width="2"/><path d="M323,202 Q361,191 415,201" stroke="#7d8790" stroke-width="5" fill="none" stroke-linecap="round"/><path d="M341,211 Q371,221 401,211" stroke="#f2c46a" stroke-width="6" fill="none" stroke-linecap="round"/><circle cx="331" cy="202" r="4" fill="#2b2b2b"/><circle cx="330" cy="201" r="1.3" fill="#ffffff"/><rect x="351" y="196" width="9" height="5" rx="2" fill="#4a3020" opacity="0.65"/><rect x="371" y="196" width="9" height="5" rx="2" fill="#4a3020" opacity="0.65"/><rect x="391" y="196" width="9" height="5" rx="2" fill="#4a3020" opacity="0.65"/></g><g transform="rotate(-22 433 225)"><path d="M371,225 Q413,207 469,219 L491,211 L487,225 L491,239 L469,231 Q413,247 371,225 Z" fill="#c9a26a" stroke="#8a6a3a" stroke-width="2"/><path d="M375,222 Q413,211 467,221" stroke="#7d8790" stroke-width="5" fill="none" stroke-linecap="round"/><path d="M393,231 Q423,241 453,231" stroke="#f2c46a" stroke-width="6" fill="none" stroke-linecap="round"/><circle cx="383" cy="222" r="4" fill="#2b2b2b"/><circle cx="382" cy="221" r="1.3" fill="#ffffff"/><rect x="403" y="216" width="9" height="5" rx="2" fill="#4a3020" opacity="0.65"/><rect x="423" y="216" width="9" height="5" rx="2" fill="#4a3020" opacity="0.65"/><rect x="443" y="216" width="9" height="5" rx="2" fill="#4a3020" opacity="0.65"/></g><path d="M583.2,210.6 Q587.7,220.0 581.7,228.4 Q575.8,236.9 567.7,241.6 Q559.5,246.4 548.9,249.4 Q538.3,252.5 532.3,244.0 Q526.3,235.5 521.3,227.7 Q516.3,220.0 519.1,210.8 Q521.9,201.6 530.5,195.7 Q539.1,189.7 549.1,192.2 Q559.2,194.6 569.0,197.9 Q578.8,201.2 583.2,210.6 Z" fill="#fbfbf6" stroke="#e8e8df" stroke-width="3"/><path d="M570,130 a28,28 0 0,1 40,40 z" fill="#f4e04d" stroke="#d9c22a" stroke-width="2"/><path d="M576,142 l22,22" stroke="#fbf3a0" stroke-width="3"/><circle cx="165" cy="430" r="88" fill="#ffffff" stroke="#2c4d7a" stroke-width="6"/><path d="M227.5,412.0 Q235.0,430.0 229.9,449.6 Q224.8,469.1 204.9,477.3 Q185.0,485.4 163.4,489.8 Q141.8,494.3 126.6,479.7 Q111.3,465.1 101.4,447.5 Q91.5,430.0 99.9,411.5 Q108.3,392.9 125.3,379.9 Q142.2,366.9 163.9,370.0 Q185.5,373.1 202.8,383.6 Q220.0,394.0 227.5,412.0 Z" fill="#fdfcf7"/><ellipse cx="206" cy="455" rx="5" ry="3" fill="#ffffff" stroke="#e6e2d4" stroke-width="0.8" transform="rotate(96 206 455)"/><ellipse cx="168" cy="441" rx="5" ry="3" fill="#ffffff" stroke="#e6e2d4" stroke-width="0.8" transform="rotate(15 168 441)"/><ellipse cx="176" cy="463" rx="5" ry="3" fill="#ffffff" stroke="#e6e2d4" stroke-width="0.8" transform="rotate(79 176 463)"/><ellipse cx="164" cy="425" rx="5" ry="3" fill="#ffffff" stroke="#e6e2d4" stroke-width="0.8" transform="rotate(151 164 425)"/><ellipse cx="211" cy="425" rx="5" ry="3" fill="#ffffff" stroke="#e6e2d4" stroke-width="0.8" transform="rotate(134 211 425)"/><ellipse cx="168" cy="425" rx="5" ry="3" fill="#ffffff" stroke="#e6e2d4" stroke-width="0.8" transform="rotate(83 168 425)"/><ellipse cx="208" cy="453" rx="5" ry="3" fill="#ffffff" stroke="#e6e2d4" stroke-width="0.8" transform="rotate(97 208 453)"/><ellipse cx="187" cy="447" rx="5" ry="3" fill="#ffffff" stroke="#e6e2d4" stroke-width="0.8" transform="rotate(140 187 447)"/><ellipse cx="158" cy="428" rx="5" ry="3" fill="#ffffff" stroke="#e6e2d4" stroke-width="0.8" transform="rotate(169 158 428)"/><ellipse cx="214" cy="448" rx="5" ry="3" fill="#ffffff" stroke="#e6e2d4" stroke-width="0.8" transform="rotate(175 214 448)"/><ellipse cx="165" cy="371" rx="5" ry="3" fill="#ffffff" stroke="#e6e2d4" stroke-width="0.8" transform="rotate(96 165 371)"/><ellipse cx="171" cy="459" rx="5" ry="3" fill="#ffffff" stroke="#e6e2d4" stroke-width="0.8" transform="rotate(133 171 459)"/><ellipse cx="168" cy="406" rx="5" ry="3" fill="#ffffff" stroke="#e6e2d4" stroke-width="0.8" transform="rotate(171 168 406)"/><ellipse cx="195" cy="437" rx="5" ry="3" fill="#ffffff" stroke="#e6e2d4" stroke-width="0.8" transform="rotate(7 195 437)"/><ellipse cx="126" cy="478" rx="5" ry="3" fill="#ffffff" stroke="#e6e2d4" stroke-width="0.8" transform="rotate(21 126 478)"/><ellipse cx="221" cy="425" rx="5" ry="3" fill="#ffffff" stroke="#e6e2d4" stroke-width="0.8" transform="rotate(124 221 425)"/><ellipse cx="192" cy="440" rx="5" ry="3" fill="#ffffff" stroke="#e6e2d4" stroke-width="0.8" transform="rotate(125 192 440)"/><ellipse cx="180" cy="440" rx="5" ry="3" fill="#ffffff" stroke="#e6e2d4" stroke-width="0.8" transform="rotate(17 180 440)"/><ellipse cx="196" cy="383" rx="5" ry="3" fill="#ffffff" stroke="#e6e2d4" stroke-width="0.8" transform="rotate(166 196 383)"/><ellipse cx="165" cy="394" rx="5" ry="3" fill="#ffffff" stroke="#e6e2d4" stroke-width="0.8" transform="rotate(11 165 394)"/><ellipse cx="118" cy="435" rx="5" ry="3" fill="#ffffff" stroke="#e6e2d4" stroke-width="0.8" transform="rotate(136 118 435)"/><ellipse cx="166" cy="430" rx="5" ry="3" fill="#ffffff" stroke="#e6e2d4" stroke-width="0.8" transform="rotate(16 166 430)"/><ellipse cx="171" cy="427" rx="5" ry="3" fill="#ffffff" stroke="#e6e2d4" stroke-width="0.8" transform="rotate(70 171 427)"/><ellipse cx="111" cy="438" rx="5" ry="3" fill="#ffffff" stroke="#e6e2d4" stroke-width="0.8" transform="rotate(24 111 438)"/><ellipse cx="162" cy="478" rx="5" ry="3" fill="#ffffff" stroke="#e6e2d4" stroke-width="0.8" transform="rotate(15 162 478)"/><ellipse cx="166" cy="431" rx="5" ry="3" fill="#ffffff" stroke="#e6e2d4" stroke-width="0.8" transform="rotate(172 166 431)"/><ellipse cx="168" cy="461" rx="5" ry="3" fill="#ffffff" stroke="#e6e2d4" stroke-width="0.8" transform="rotate(68 168 461)"/><ellipse cx="209" cy="425" rx="5" ry="3" fill="#ffffff" stroke="#e6e2d4" stroke-width="0.8" transform="rotate(108 209 425)"/><ellipse cx="148" cy="431" rx="5" ry="3" fill="#ffffff" stroke="#e6e2d4" stroke-width="0.8" transform="rotate(151 148 431)"/><ellipse cx="196" cy="453" rx="5" ry="3" fill="#ffffff" stroke="#e6e2d4" stroke-width="0.8" transform="rotate(53 196 453)"/><ellipse cx="160" cy="458" rx="5" ry="3" fill="#ffffff" stroke="#e6e2d4" stroke-width="0.8" transform="rotate(34 160 458)"/><ellipse cx="161" cy="428" rx="5" ry="3" fill="#ffffff" stroke="#e6e2d4" stroke-width="0.8" transform="rotate(3 161 428)"/><ellipse cx="169" cy="434" rx="5" ry="3" fill="#ffffff" stroke="#e6e2d4" stroke-width="0.8" transform="rotate(158 169 434)"/><ellipse cx="123" cy="427" rx="5" ry="3" fill="#ffffff" stroke="#e6e2d4" stroke-width="0.8" transform="rotate(140 123 427)"/><ellipse cx="195" cy="481" rx="5" ry="3" fill="#ffffff" stroke="#e6e2d4" stroke-width="0.8" transform="rotate(69 195 481)"/><ellipse cx="136" cy="437" rx="5" ry="3" fill="#ffffff" stroke="#e6e2d4" stroke-width="0.8" transform="rotate(125 136 437)"/><ellipse cx="166" cy="418" rx="5" ry="3" fill="#ffffff" stroke="#e6e2d4" stroke-width="0.8" transform="rotate(149 166 418)"/><ellipse cx="151" cy="437" rx="5" ry="3" fill="#ffffff" stroke="#e6e2d4" stroke-width="0.8" transform="rotate(156 151 437)"/><ellipse cx="202" cy="392" rx="5" ry="3" fill="#ffffff" stroke="#e6e2d4" stroke-width="0.8" transform="rotate(58 202 392)"/><ellipse cx="206" cy="405" rx="5" ry="3" fill="#ffffff" stroke="#e6e2d4" stroke-width="0.8" transform="rotate(175 206 405)"/><ellipse cx="167" cy="368" rx="5" ry="3" fill="#ffffff" stroke="#e6e2d4" stroke-width="0.8" transform="rotate(86 167 368)"/><ellipse cx="165" cy="382" rx="5" ry="3" fill="#ffffff" stroke="#e6e2d4" stroke-width="0.8" transform="rotate(94 165 382)"/><ellipse cx="140" cy="429" rx="5" ry="3" fill="#ffffff" stroke="#e6e2d4" stroke-width="0.8" transform="rotate(156 140 429)"/><ellipse cx="132" cy="462" rx="5" ry="3" fill="#ffffff" stroke="#e6e2d4" stroke-width="0.8" transform="rotate(101 132 462)"/><ellipse cx="160" cy="412" rx="5" ry="3" fill="#ffffff" stroke="#e6e2d4" stroke-width="0.8" transform="rotate(14 160 412)"/><ellipse cx="161" cy="422" rx="5" ry="3" fill="#ffffff" stroke="#e6e2d4" stroke-width="0.8" transform="rotate(65 161 422)"/><ellipse cx="166" cy="427" rx="5" ry="3" fill="#ffffff" stroke="#e6e2d4" stroke-width="0.8" transform="rotate(164 166 427)"/><ellipse cx="135" cy="412" rx="5" ry="3" fill="#ffffff" stroke="#e6e2d4" stroke-width="0.8" transform="rotate(122 135 412)"/><ellipse cx="166" cy="430" rx="5" ry="3" fill="#ffffff" stroke="#e6e2d4" stroke-width="0.8" transform="rotate(130 166 430)"/><ellipse cx="131" cy="409" rx="5" ry="3" fill="#ffffff" stroke="#e6e2d4" stroke-width="0.8" transform="rotate(148 131 409)"/><ellipse cx="164" cy="440" rx="5" ry="3" fill="#ffffff" stroke="#e6e2d4" stroke-width="0.8" transform="rotate(174 164 440)"/><ellipse cx="195" cy="442" rx="5" ry="3" fill="#ffffff" stroke="#e6e2d4" stroke-width="0.8" transform="rotate(112 195 442)"/><ellipse cx="170" cy="429" rx="5" ry="3" fill="#ffffff" stroke="#e6e2d4" stroke-width="0.8" transform="rotate(126 170 429)"/><ellipse cx="190" cy="443" rx="5" ry="3" fill="#ffffff" stroke="#e6e2d4" stroke-width="0.8" transform="rotate(112 190 443)"/><ellipse cx="167" cy="428" rx="5" ry="3" fill="#ffffff" stroke="#e6e2d4" stroke-width="0.8" transform="rotate(135 167 428)"/><ellipse cx="180" cy="450" rx="5" ry="3" fill="#ffffff" stroke="#e6e2d4" stroke-width="0.8" transform="rotate(177 180 450)"/><ellipse cx="168" cy="426" rx="5" ry="3" fill="#ffffff" stroke="#e6e2d4" stroke-width="0.8" transform="rotate(1 168 426)"/><ellipse cx="212" cy="440" rx="5" ry="3" fill="#ffffff" stroke="#e6e2d4" stroke-width="0.8" transform="rotate(7 212 440)"/><ellipse cx="176" cy="381" rx="5" ry="3" fill="#ffffff" stroke="#e6e2d4" stroke-width="0.8" transform="rotate(147 176 381)"/><ellipse cx="201" cy="415" rx="5" ry="3" fill="#ffffff" stroke="#e6e2d4" stroke-width="0.8" transform="rotate(148 201 415)"/><ellipse cx="125" cy="419" rx="5" ry="3" fill="#ffffff" stroke="#e6e2d4" stroke-width="0.8" transform="rotate(13 125 419)"/><ellipse cx="107" cy="411" rx="5" ry="3" fill="#ffffff" stroke="#e6e2d4" stroke-width="0.8" transform="rotate(70 107 411)"/><ellipse cx="163" cy="419" rx="5" ry="3" fill="#ffffff" stroke="#e6e2d4" stroke-width="0.8" transform="rotate(87 163 419)"/><ellipse cx="119" cy="418" rx="5" ry="3" fill="#ffffff" stroke="#e6e2d4" stroke-width="0.8" transform="rotate(58 119 418)"/><ellipse cx="153" cy="432" rx="5" ry="3" fill="#ffffff" stroke="#e6e2d4" stroke-width="0.8" transform="rotate(104 153 432)"/><ellipse cx="187" cy="421" rx="5" ry="3" fill="#ffffff" stroke="#e6e2d4" stroke-width="0.8" transform="rotate(119 187 421)"/><ellipse cx="154" cy="426" rx="5" ry="3" fill="#ffffff" stroke="#e6e2d4" stroke-width="0.8" transform="rotate(125 154 426)"/><ellipse cx="174" cy="467" rx="5" ry="3" fill="#ffffff" stroke="#e6e2d4" stroke-width="0.8" transform="rotate(179 174 467)"/><ellipse cx="151" cy="469" rx="5" ry="3" fill="#ffffff" stroke="#e6e2d4" stroke-width="0.8" transform="rotate(61 151 469)"/><ellipse cx="158" cy="421" rx="5" ry="3" fill="#ffffff" stroke="#e6e2d4" stroke-width="0.8" transform="rotate(90 158 421)"/><circle cx="395" cy="435" r="82" fill="#1b1b1b"/><circle cx="395" cy="435" r="72" fill="#8e1f1f"/><circle cx="395" cy="435" r="66" fill="#c08a4a"/><path d="M426.8,409.5 Q429.1,414.9 425.9,419.3 Q422.7,423.7 417.5,424.4 Q412.4,425.1 405.5,423.6 Q398.6,422.0 397.6,414.5 Q396.7,407.0 404.0,403.8 Q411.3,400.6 417.9,402.4 Q424.5,404.1 426.8,409.5 Z" fill="#d4a564"/><path d="M396.2,412.0 Q402.8,416.8 396.9,422.3 Q391.0,427.8 384.0,430.3 Q377.1,432.8 373.2,427.4 Q369.3,421.9 369.9,417.0 Q370.5,412.1 374.8,410.2 Q379.0,408.2 384.3,407.8 Q389.5,407.3 396.2,412.0 Z" fill="#d4a564"/><path d="M403.2,430.7 Q406.8,436.5 403.8,443.0 Q400.8,449.5 392.8,452.1 Q384.7,454.8 378.1,449.5 Q371.4,444.2 372.1,436.8 Q372.8,429.3 378.8,424.2 Q384.9,419.0 392.3,421.9 Q399.6,424.9 403.2,430.7 Z" fill="#d4a564"/><path d="M409.0,458.0 Q414.1,464.1 408.1,469.2 Q402.2,474.3 395.3,478.3 Q388.5,482.2 384.0,476.1 Q379.5,470.0 377.6,463.3 Q375.8,456.6 383.3,456.0 Q390.9,455.4 397.4,453.7 Q403.8,452.0 409.0,458.0 Z" fill="#d4a564"/><path d="M442.3,424.4 Q447.0,430.7 442.4,437.1 Q437.7,443.6 430.9,441.5 Q424.1,439.4 420.4,437.1 Q416.7,434.8 415.3,430.1 Q413.8,425.3 417.6,418.3 Q421.4,411.4 429.4,414.7 Q437.5,418.0 442.3,424.4 Z" fill="#d4a564"/><path d="M413.0,455.5 Q415.9,460.2 412.5,464.2 Q409.0,468.3 403.7,470.9 Q398.4,473.6 390.6,471.1 Q382.7,468.5 387.0,462.1 Q391.3,455.6 394.8,450.9 Q398.3,446.2 404.2,448.5 Q410.2,450.8 413.0,455.5 Z" fill="#d4a564"/><rect x="376" y="397" width="18" height="18" rx="3" fill="#fbf6e8"/><rect x="415" y="409" width="18" height="18" rx="3" fill="#fbf6e8"/><rect x="406" y="403" width="18" height="18" rx="3" fill="#fbf6e8"/><rect x="381" y="393" width="18" height="18" rx="3" fill="#fbf6e8"/><rect x="392" y="427" width="18" height="18" rx="3" fill="#fbf6e8"/><path d="M398.0,409.8 Q402.0,412.2 398.1,414.7 Q394.1,417.1 390.3,421.2 Q386.5,425.2 383.3,420.8 Q380.0,416.5 379.5,412.0 Q379.0,407.6 383.3,405.4 Q387.5,403.2 390.8,405.3 Q394.0,407.5 398.0,409.8 Z" fill="#2f5a2a"/><path d="M368.4,448.0 Q370.2,452.1 367.5,455.3 Q364.9,458.5 360.8,460.3 Q356.8,462.1 351.6,459.9 Q346.4,457.7 347.9,452.8 Q349.3,447.8 353.0,445.1 Q356.8,442.4 361.7,443.1 Q366.6,443.9 368.4,448.0 Z" fill="#2f5a2a"/><path d="M432.4,396.2 Q435.8,399.4 433.2,403.5 Q430.7,407.6 425.6,409.2 Q420.5,410.7 418.3,406.6 Q416.1,402.5 413.5,398.3 Q410.9,394.0 415.6,390.7 Q420.4,387.5 424.7,390.3 Q429.0,393.0 432.4,396.2 Z" fill="#2f5a2a"/><path d="M437.5,397.9 Q440.5,401.0 437.0,403.6 Q433.6,406.2 430.4,407.2 Q427.2,408.2 422.6,407.0 Q418.0,405.8 417.8,400.9 Q417.5,396.0 422.1,393.7 Q426.6,391.5 430.6,393.2 Q434.5,394.8 437.5,397.9 Z" fill="#2f5a2a"/><path d="M406.2,427.9 Q408.4,431.1 406.6,434.7 Q404.8,438.3 400.4,439.4 Q396.0,440.4 392.8,437.7 Q389.5,434.9 390.5,431.5 Q391.5,428.1 393.7,424.8 Q396.0,421.5 400.0,423.1 Q404.1,424.7 406.2,427.9 Z" fill="#2f5a2a"/><rect x="560" y="470" width="120" height="58" rx="12" fill="#efe9dc" stroke="#c9bfa8" stroke-width="2"/><ellipse cx="590" cy="499" rx="16" ry="14" fill="#f5d33c" stroke="#e0b81e" stroke-width="2"/><ellipse cx="606" cy="499" rx="16" ry="14" fill="#f5d33c" stroke="#e0b81e" stroke-width="2"/><ellipse cx="622" cy="499" rx="16" ry="14" fill="#f5d33c" stroke="#e0b81e" stroke-width="2"/><rect x="250" y="530" width="300" height="10" rx="5" fill="#8a5a36"/><rect x="250" y="544" width="300" height="10" rx="5" fill="#9c6a42"/></svg>